<?xml version="1.0" encoding="UTF-8"?>
<svg version="1.1" xmlns="http://www.w3.org/2000/svg" width="143" height="163">
<path d="M0 0 C47.19 0 94.38 0 143 0 C143 53.79 143 107.58 143 163 C95.81 163 48.62 163 0 163 C0 109.21 0 55.42 0 0 Z " fill="#F9F9FB" transform="translate(0,0)"/>
<path d="M0 0 C3 0.25 3 0.25 5 2.25 C5.125 5.375 5.125 5.375 5 8.25 C3.02 9.24 3.02 9.24 1 10.25 C1 12.89 1 15.53 1 18.25 C1.6290625 18.20359375 2.258125 18.1571875 2.90625 18.109375 C8.54941458 17.87141023 12.3311678 18.3806294 17.2109375 21.27734375 C19.18769195 22.35204213 20.76327401 22.96929534 23 23.25 C23.99 22.59 24.98 21.93 26 21.25 C26.41666667 18.25 26.41666667 18.25 26 15.25 C25.01 14.26 25.01 14.26 24 13.25 C23.6875 10.75 23.6875 10.75 24 8.25 C27 6.25 27 6.25 29.0625 6.5 C31 7.25 31 7.25 33 9.25 C32.44444444 13.80555556 32.44444444 13.80555556 31 15.25 C30.9175 16.343125 30.835 17.43625 30.75 18.5625 C30 22.25 30 22.25 27.4375 24.6875 C26.633125 25.203125 25.82875 25.71875 25 26.25 C25.32097656 27.075 25.64195313 27.9 25.97265625 28.75 C27.30172441 33.27792804 27.3862403 37.65284206 27.47851562 42.328125 C27.66260802 47.03370615 28.73560359 50.15713376 31 54.25 C30.9375 56.5 30.9375 56.5 30 58.25 C28.68771113 58.95719173 27.35493862 59.6284185 26 60.25 C26.04640625 61.08144531 26.0928125 61.91289063 26.140625 62.76953125 C26.17671875 63.85621094 26.2128125 64.94289063 26.25 66.0625 C26.29640625 67.14144531 26.3428125 68.22039062 26.390625 69.33203125 C26 72.25 26 72.25 24.3125 74.125 C21.57673998 75.45591028 19.77631897 75.55695996 16.75 75.4375 C15.41195312 75.39689453 15.41195312 75.39689453 14.046875 75.35546875 C13.37140625 75.32066406 12.6959375 75.28585938 12 75.25 C11.896875 76.52875 11.79375 77.8075 11.6875 79.125 C11.51171875 81.3046875 11.51171875 81.3046875 11 83.25 C7.7338047 85.42746353 6.75054166 85.50606429 2.96484375 85.515625 C1.50401367 85.51949219 1.50401367 85.51949219 0.01367188 85.5234375 C-1.00146484 85.51570313 -2.01660156 85.50796875 -3.0625 85.5 C-4.08150391 85.50773437 -5.10050781 85.51546875 -6.15039062 85.5234375 C-7.12298828 85.52085938 -8.09558594 85.51828125 -9.09765625 85.515625 C-9.98976807 85.51336914 -10.88187988 85.51111328 -11.80102539 85.50878906 C-14 85.25 -14 85.25 -16 83.25 C-16.37076135 78.43010242 -15.75210338 74.73976491 -14 70.25 C-13.34 70.25 -12.68 70.25 -12 70.25 C-12.14107747 71.70880109 -12.28802415 73.16703551 -12.4375 74.625 C-12.51871094 75.43710938 -12.59992187 76.24921875 -12.68359375 77.0859375 C-13 79.25 -13 79.25 -14 81.25 C-10.7 81.25 -7.4 81.25 -4 81.25 C-4 76.96 -4 72.67 -4 68.25 C-5.98644531 68.28480469 -7.97289062 68.31960937 -10.01953125 68.35546875 C-11.94570795 68.37632987 -13.87188746 68.39708429 -15.7980957 68.41479492 C-17.79327701 68.43728333 -19.78826213 68.47540198 -21.78320312 68.51367188 C-23.03681641 68.52333984 -24.29042969 68.53300781 -25.58203125 68.54296875 C-26.73936768 68.5586792 -27.8967041 68.57438965 -29.08911133 68.59057617 C-32 68.25 -32 68.25 -33.8828125 66.96875 C-35.83008889 63.97294017 -35.30492357 60.50993559 -35.1875 57.0625 C-35.17396484 56.31291016 -35.16042969 55.56332031 -35.14648438 54.79101562 C-35.11118539 52.94370233 -35.05737917 51.09675934 -35 49.25 C-35.95132813 48.82074219 -35.95132813 48.82074219 -36.921875 48.3828125 C-39.41561201 47.02344458 -39.96432124 45.83919691 -41 43.25 C-41.66 43.25 -42.32 43.25 -43 43.25 C-42.67 42.6725 -42.34 42.095 -42 41.5 C-40.72924102 39.05116138 -40.72924102 39.05116138 -41 35.25 C-40.67 34.59 -40.34 33.93 -40 33.25 C-39.01 33.91 -38.02 34.57 -37 35.25 C-35.5393715 32.60261084 -35 31.35551666 -35 28.25 C-34.01 28.91 -33.02 29.57 -32 30.25 C-31.34 28.93 -30.68 27.61 -30 26.25 C-30.99 25.59 -31.98 24.93 -33 24.25 C-33.99 24.91 -34.98 25.57 -36 26.25 C-35.67 24.6 -35.34 22.95 -35 21.25 C-38.76687864 21.25 -39.91190305 21.48537317 -43 23.25 C-43 22.59 -43 21.93 -43 21.25 C-42.01 20.59 -41.02 19.93 -40 19.25 C-40.62936439 16.31296616 -41.62420173 13.91211372 -43 11.25 C-41.75160501 10.144019 -40.50120766 9.04029799 -39.25 7.9375 C-38.55390625 7.32261719 -37.8578125 6.70773438 -37.140625 6.07421875 C-35.14885494 4.37685266 -33.11101085 2.79522191 -31 1.25 C-30.67 1.91 -30.34 2.57 -30 3.25 C-26.97065509 3.90772428 -26.97065509 3.90772428 -24 4.25 C-23.0234375 10.3046875 -23.0234375 10.3046875 -23 12.25 C-23.66 12.91 -24.32 13.57 -25 14.25 C-25.40047444 16.57275177 -25.7397104 18.90739357 -26 21.25 C-24.00458132 21.93025637 -22.00382009 22.59490497 -20 23.25 C-19.35289063 23.48589844 -18.70578125 23.72179687 -18.0390625 23.96484375 C-15.27131572 24.35190412 -14.35317474 23.49467722 -12.125 21.875 C-8.74986265 19.59330602 -6.13501968 18.56012648 -2 18.25 C-2.12375 16.97125 -2.2475 15.6925 -2.375 14.375 C-2.47941406 13.29605469 -2.47941406 13.29605469 -2.5859375 12.1953125 C-2.86374749 10.02331755 -2.86374749 10.02331755 -5 8.25 C-5.25 5.25 -5.25 5.25 -5 2.25 C-3 0.25 -3 0.25 0 0 Z " fill="#F1F1F3" transform="translate(74,41.75)"/>
<path d="M0 0 C3 0.25 3 0.25 5 2.25 C5.125 5.375 5.125 5.375 5 8.25 C3.02 9.24 3.02 9.24 1 10.25 C1 12.89 1 15.53 1 18.25 C1.6290625 18.20359375 2.258125 18.1571875 2.90625 18.109375 C8.54941458 17.87141023 12.3311678 18.3806294 17.2109375 21.27734375 C19.18769195 22.35204213 20.76327401 22.96929534 23 23.25 C23.99 22.59 24.98 21.93 26 21.25 C26.41666667 18.25 26.41666667 18.25 26 15.25 C25.34 14.59 24.68 13.93 24 13.25 C23.6875 10.75 23.6875 10.75 24 8.25 C27 6.25 27 6.25 29.0625 6.5 C31 7.25 31 7.25 33 9.25 C32.44444444 13.80555556 32.44444444 13.80555556 31 15.25 C30.9175 16.343125 30.835 17.43625 30.75 18.5625 C30 22.25 30 22.25 27.4375 24.6875 C26.633125 25.203125 25.82875 25.71875 25 26.25 C25.32097656 27.075 25.64195313 27.9 25.97265625 28.75 C27.30172441 33.27792804 27.3862403 37.65284206 27.47851562 42.328125 C27.66260802 47.03370615 28.73560359 50.15713376 31 54.25 C30.9375 56.5 30.9375 56.5 30 58.25 C28.68771113 58.95719173 27.35493862 59.6284185 26 60.25 C26.04640625 61.08144531 26.0928125 61.91289063 26.140625 62.76953125 C26.17671875 63.85621094 26.2128125 64.94289063 26.25 66.0625 C26.29640625 67.14144531 26.3428125 68.22039062 26.390625 69.33203125 C26 72.25 26 72.25 24.3125 74.125 C21.57673998 75.45591028 19.77631897 75.55695996 16.75 75.4375 C15.41195312 75.39689453 15.41195312 75.39689453 14.046875 75.35546875 C13.37140625 75.32066406 12.6959375 75.28585938 12 75.25 C11.896875 76.52875 11.79375 77.8075 11.6875 79.125 C11.51171875 81.3046875 11.51171875 81.3046875 11 83.25 C7.7338047 85.42746353 6.75054166 85.50606429 2.96484375 85.515625 C1.50401367 85.51949219 1.50401367 85.51949219 0.01367188 85.5234375 C-1.00146484 85.51570313 -2.01660156 85.50796875 -3.0625 85.5 C-4.08150391 85.50773437 -5.10050781 85.51546875 -6.15039062 85.5234375 C-7.12298828 85.52085938 -8.09558594 85.51828125 -9.09765625 85.515625 C-9.98976807 85.51336914 -10.88187988 85.51111328 -11.80102539 85.50878906 C-14 85.25 -14 85.25 -16 83.25 C-16.37076135 78.43010242 -15.75210338 74.73976491 -14 70.25 C-13.34 70.25 -12.68 70.25 -12 70.25 C-12.14107747 71.70880109 -12.28802415 73.16703551 -12.4375 74.625 C-12.51871094 75.43710938 -12.59992187 76.24921875 -12.68359375 77.0859375 C-13 79.25 -13 79.25 -14 81.25 C-10.7 81.25 -7.4 81.25 -4 81.25 C-4 76.96 -4 72.67 -4 68.25 C-5.98644531 68.28480469 -7.97289063 68.31960937 -10.01953125 68.35546875 C-11.94570795 68.37632987 -13.87188746 68.39708429 -15.7980957 68.41479492 C-17.79327701 68.43728333 -19.78826213 68.47540198 -21.78320312 68.51367188 C-23.03681641 68.52333984 -24.29042969 68.53300781 -25.58203125 68.54296875 C-26.73936768 68.5586792 -27.8967041 68.57438965 -29.08911133 68.59057617 C-32 68.25 -32 68.25 -33.8828125 66.96875 C-35.83008889 63.97294017 -35.30492357 60.50993559 -35.1875 57.0625 C-35.16719727 55.93811523 -35.16719727 55.93811523 -35.14648438 54.79101562 C-35.11118539 52.94370233 -35.05737917 51.09675934 -35 49.25 C-36.32 48.59 -37.64 47.93 -39 47.25 C-39.22417836 44.4851335 -39.32233508 42.78722513 -37.875 40.375 C-36 39.25 -36 39.25 -32.875 39.5 C-30 40.25 -30 40.25 -29 41.25 C-28.95919217 43.24958364 -28.95745644 45.25045254 -29 47.25 C-30.32 47.91 -31.64 48.57 -33 49.25 C-32.67 54.2 -32.34 59.15 -32 64.25 C-30.01355469 64.28738281 -28.02710938 64.32476562 -25.98046875 64.36328125 C-24.05425387 64.41195816 -22.12804005 64.46073808 -20.2019043 64.51245117 C-18.2070937 64.56201319 -16.21192743 64.59651133 -14.21679688 64.63085938 C-12.33637695 64.6840332 -12.33637695 64.6840332 -10.41796875 64.73828125 C-9.26063232 64.76446533 -8.1032959 64.79064941 -6.91088867 64.81762695 C-4 65.25 -4 65.25 -2.1171875 66.57226562 C-0.25193236 69.37340927 -0.72197587 72.14845647 -0.8125 75.4375 C-0.85310547 77.34595703 -0.85310547 77.34595703 -0.89453125 79.29296875 C-0.92933594 80.26878906 -0.96414062 81.24460937 -1 82.25 C3.455 81.755 3.455 81.755 8 81.25 C8.99 78.28 9.98 75.31 11 72.25 C11.78246094 72.18941406 12.56492188 72.12882812 13.37109375 72.06640625 C14.38300781 71.98261719 15.39492187 71.89882812 16.4375 71.8125 C17.44683594 71.73128906 18.45617187 71.65007812 19.49609375 71.56640625 C21.93640779 71.51788532 21.93640779 71.51788532 23 70.25 C23.24414016 67.18016348 23.38410674 64.1114327 23.5234375 61.03515625 C23.68070313 60.11605469 23.83796875 59.19695312 24 58.25 C24.99 57.59 25.98 56.93 27 56.25 C25.63160973 52.03170451 25.63160973 52.03170451 23.921875 47.9453125 C22.81446973 44.7075598 22.9404119 42.21935435 23.125 38.8125 C23.22721942 33.17126595 22.88106717 30.35936524 19 26.25 C18.34 25.92 17.68 25.59 17 25.25 C16.67 27.23 16.34 29.21 16 31.25 C15.01 31.25 14.02 31.25 13 31.25 C13.33 28.61 13.66 25.97 14 23.25 C6.52609164 20.75869721 -3.5419614 21.03924439 -10.75 24.25 C-15.35044351 27.0102661 -17.62187767 30.08426404 -19 35.25 C-19.54685714 38.58345094 -19.86171728 41.87590166 -20 45.25 C-17.36 45.25 -14.72 45.25 -12 45.25 C-12 43.27 -12 41.29 -12 39.25 C-11.67 39.25 -11.34 39.25 -11 39.25 C-11 41.56 -11 43.87 -11 46.25 C-9.02 46.58 -7.04 46.91 -5 47.25 C-5 47.58 -5 47.91 -5 48.25 C-9.62 48.25 -14.24 48.25 -19 48.25 C-18.175 50.168125 -17.35 52.08625 -16.5 54.0625 C-14 59.875 -14 59.875 -14 63.25 C-14.66 63.25 -15.32 63.25 -16 63.25 C-20.99702577 54.11421625 -25.16726992 44.26764596 -22.32421875 33.75 C-21.60184009 31.55889884 -20.83609952 29.3999702 -20 27.25 C-20.63808594 26.981875 -21.27617188 26.71375 -21.93359375 26.4375 C-28.6283088 23.26247133 -28.6283088 23.26247133 -29.75 20.20703125 C-29.92310356 18.22715926 -29.96742364 16.23715795 -30 14.25 C-30.66 13.59 -31.32 12.93 -32 12.25 C-31.43181818 6.68181818 -31.43181818 6.68181818 -30 5.25 C-27.5625 5.0625 -27.5625 5.0625 -25 5.25 C-23 7.25 -23 7.25 -22.75 9.75 C-23 12.25 -23 12.25 -25 14.25 C-25.40047444 16.57275177 -25.7397104 18.90739357 -26 21.25 C-24.00458132 21.93025637 -22.00382009 22.59490497 -20 23.25 C-19.35289063 23.48589844 -18.70578125 23.72179687 -18.0390625 23.96484375 C-15.27131572 24.35190412 -14.35317474 23.49467722 -12.125 21.875 C-8.74986265 19.59330602 -6.13501968 18.56012648 -2 18.25 C-2.12375 16.97125 -2.2475 15.6925 -2.375 14.375 C-2.47941406 13.29605469 -2.47941406 13.29605469 -2.5859375 12.1953125 C-2.86374749 10.02331755 -2.86374749 10.02331755 -5 8.25 C-5.25 5.25 -5.25 5.25 -5 2.25 C-3 0.25 -3 0.25 0 0 Z " fill="#101010" transform="translate(74,41.75)"/>
<path d="M0 0 C0.71607422 -0.01224609 1.43214844 -0.02449219 2.16992188 -0.03710938 C5.96223108 -0.04765333 8.84849094 0.06440785 12.0625 2.1875 C11.7840625 3.8271875 11.7840625 3.8271875 11.5 5.5 C10.8046932 9.12374133 10.8046932 9.12374133 12.0625 12.1875 C8.75691944 18.26976822 3.83157475 23.07506733 -2.66015625 25.6953125 C-7.97100656 26.84311205 -13.53794304 26.38970255 -18.9375 26.1875 C-18.9375 25.8575 -18.9375 25.5275 -18.9375 25.1875 C-17.2875 25.1875 -15.6375 25.1875 -13.9375 25.1875 C-14.92017859 23.98188816 -14.92017859 23.98188816 -16.78515625 24.08984375 C-18.8359375 24.12239583 -20.88671875 24.15494792 -22.9375 24.1875 C-23.43683177 17.41878051 -23.33166413 11.66498991 -18.9375 6.1875 C-12.94532922 1.34071398 -7.62756311 0.00682862 0 0 Z " fill="#191919" transform="translate(76.9375,62.8125)"/>
<path d="M0 0 C0.99 0 1.98 0 3 0 C5.375 2.5625 5.375 2.5625 7 6 C6.42416422 8.72163894 5.38211607 10.53193559 4 13 C4.66 13 5.32 13 6 13 C6 13.66 6 14.32 6 15 C6.66 15 7.32 15 8 15 C7.34 16.32 6.68 17.64 6 19 C5.34 19 4.68 19 4 19 C3.67 20.32 3.34 21.64 3 23 C1.68 23.33 0.36 23.66 -1 24 C-1 25.32 -1 26.64 -1 28 C-0.443125 28.226875 0.11375 28.45375 0.6875 28.6875 C3.63246684 30.35896766 5.68156544 32.55276352 8 35 C6.84826645 37.46800047 5.95216435 39.04783565 4 41 C4.66 41.61875 5.32 42.2375 6 42.875 C8 45 8 45 8 47 C7.01 47.66 6.02 48.32 5 49 C5.62759865 51.92879371 6.58622659 54.36095629 8 57 C7.01 57.99 6.02 58.98 5 60 C5.4640625 60.928125 5.4640625 60.928125 5.9375 61.875 C6.625 63.25 7.3125 64.625 8 66 C7.401875 65.67 6.80375 65.34 6.1875 65 C3.94613529 63.79212012 3.94613529 63.79212012 1 64 C0.63019987 68.04622502 0.63019987 68.04622502 3 71 C2.1646875 70.5359375 2.1646875 70.5359375 1.3125 70.0625 C-1.12540433 68.94238179 -3.36224186 68.43962636 -6 68 C-5.505 67.01 -5.505 67.01 -5 66 C-4.80251752 62.94999276 -4.68184822 59.90210624 -4.57421875 56.84765625 C-4 54 -4 54 -1.95703125 52.12109375 C-1.31121094 51.75113281 -0.66539063 51.38117188 0 51 C-0.56322387 47.50820251 -0.56322387 47.50820251 -2.0078125 44.3203125 C-3.42720152 41.00095392 -3.38904503 37.68208567 -3.5 34.125 C-3.65830782 29.10571078 -4.16289709 24.7260954 -6 20 C-5.195625 19.484375 -4.39125 18.96875 -3.5625 18.4375 C-0.31413419 15.34759106 -0.40365669 13.35949227 0 9 C0.66 8.34 1.32 7.68 2 7 C1.6730244 4.38419521 1.17960932 2.35921863 0 0 Z " fill="#F0F0F2" transform="translate(104,48)"/>
<path d="M0 0 C3 0.25 3 0.25 5 2.25 C5.125 5.375 5.125 5.375 5 8.25 C3.02 9.24 3.02 9.24 1 10.25 C1 12.89 1 15.53 1 18.25 C4.3 18.25 7.6 18.25 11 18.25 C10.67 18.91 10.34 19.57 10 20.25 C7.69778183 20.59756068 5.38124372 20.85170512 3.0625 21.0625 C-4.18707381 21.89570503 -11.53190044 23.08642593 -16.4609375 29.00390625 C-19.34498647 34.06633263 -19.76505495 39.5173407 -20 45.25 C-17.36 45.25 -14.72 45.25 -12 45.25 C-12 43.27 -12 41.29 -12 39.25 C-11.67 39.25 -11.34 39.25 -11 39.25 C-11 41.56 -11 43.87 -11 46.25 C-9.02 46.58 -7.04 46.91 -5 47.25 C-5 47.58 -5 47.91 -5 48.25 C-9.62 48.25 -14.24 48.25 -19 48.25 C-18.175 50.168125 -17.35 52.08625 -16.5 54.0625 C-14 59.875 -14 59.875 -14 63.25 C-14.66 63.25 -15.32 63.25 -16 63.25 C-20.99702577 54.11421625 -25.16726992 44.26764596 -22.32421875 33.75 C-21.60184009 31.55889884 -20.83609952 29.3999702 -20 27.25 C-20.63808594 26.981875 -21.27617188 26.71375 -21.93359375 26.4375 C-28.6283088 23.26247133 -28.6283088 23.26247133 -29.75 20.20703125 C-29.92310356 18.22715926 -29.96742364 16.23715795 -30 14.25 C-30.66 13.59 -31.32 12.93 -32 12.25 C-31.43181818 6.68181818 -31.43181818 6.68181818 -30 5.25 C-27.5625 5.0625 -27.5625 5.0625 -25 5.25 C-23 7.25 -23 7.25 -22.75 9.75 C-23 12.25 -23 12.25 -25 14.25 C-25.40047444 16.57275177 -25.7397104 18.90739357 -26 21.25 C-24.00458132 21.93025637 -22.00382009 22.59490497 -20 23.25 C-19.35289063 23.48589844 -18.70578125 23.72179687 -18.0390625 23.96484375 C-15.27131572 24.35190412 -14.35317474 23.49467722 -12.125 21.875 C-8.74986265 19.59330602 -6.13501968 18.56012648 -2 18.25 C-2.12375 16.97125 -2.2475 15.6925 -2.375 14.375 C-2.44460937 13.65570313 -2.51421875 12.93640625 -2.5859375 12.1953125 C-2.86374749 10.02331755 -2.86374749 10.02331755 -5 8.25 C-5.25 5.25 -5.25 5.25 -5 2.25 C-3 0.25 -3 0.25 0 0 Z " fill="#3A3A3A" transform="translate(74,41.75)"/>
<path d="M0 0 C2.875 0.75 2.875 0.75 3.875 1.75 C3.91580783 3.74958364 3.91754356 5.75045254 3.875 7.75 C1.895 8.74 1.895 8.74 -0.125 9.75 C0.205 14.7 0.535 19.65 0.875 24.75 C2.86144531 24.78738281 4.84789062 24.82476562 6.89453125 24.86328125 C8.82074613 24.91195816 10.74695995 24.96073808 12.6730957 25.01245117 C14.6679063 25.06201319 16.66307257 25.09651133 18.65820312 25.13085938 C19.91181641 25.16630859 21.16542969 25.20175781 22.45703125 25.23828125 C23.61436768 25.26446533 24.7717041 25.29064941 25.96411133 25.31762695 C28.875 25.75 28.875 25.75 30.7578125 27.07226562 C32.62306764 29.87340927 32.15302413 32.64845647 32.0625 35.9375 C32.02189453 37.84595703 32.02189453 37.84595703 31.98046875 39.79296875 C31.94566406 40.76878906 31.91085938 41.74460938 31.875 42.75 C34.845 42.75 37.815 42.75 40.875 42.75 C40.875 43.74 40.875 44.73 40.875 45.75 C37.25006666 45.80787784 33.62525143 45.8435542 30 45.875 C28.96746094 45.89175781 27.93492188 45.90851563 26.87109375 45.92578125 C25.39189453 45.93544922 25.39189453 45.93544922 23.8828125 45.9453125 C22.51600342 45.96102295 22.51600342 45.96102295 21.12158203 45.97705078 C18.875 45.75 18.875 45.75 16.875 43.75 C16.50423865 38.93010242 17.12289662 35.23976491 18.875 30.75 C19.535 30.75 20.195 30.75 20.875 30.75 C20.73392253 32.20880109 20.58697585 33.66703551 20.4375 35.125 C20.35628906 35.93710938 20.27507813 36.74921875 20.19140625 37.5859375 C19.875 39.75 19.875 39.75 18.875 41.75 C22.175 41.75 25.475 41.75 28.875 41.75 C28.875 37.46 28.875 33.17 28.875 28.75 C26.88855469 28.78480469 24.90210937 28.81960937 22.85546875 28.85546875 C20.92929205 28.87632987 19.00311254 28.89708429 17.0769043 28.91479492 C15.08172299 28.93728333 13.08673787 28.97540198 11.09179688 29.01367188 C9.83818359 29.02333984 8.58457031 29.03300781 7.29296875 29.04296875 C6.13563232 29.0586792 4.9782959 29.07438965 3.78588867 29.09057617 C0.875 28.75 0.875 28.75 -1.0078125 27.46875 C-2.95508889 24.47294017 -2.42992357 21.00993559 -2.3125 17.5625 C-2.29219727 16.43811523 -2.29219727 16.43811523 -2.27148438 15.29101562 C-2.23618539 13.44370233 -2.18237917 11.59675934 -2.125 9.75 C-3.445 9.09 -4.765 8.43 -6.125 7.75 C-6.34917836 4.9851335 -6.44733508 3.28722513 -5 0.875 C-3.125 -0.25 -3.125 -0.25 0 0 Z " fill="#202020" transform="translate(41.125,81.25)"/>
<path d="M0 0 C0.71607422 -0.01224609 1.43214844 -0.02449219 2.16992188 -0.03710938 C5.96223108 -0.04765333 8.84849094 0.06440785 12.0625 2.1875 C11.1875 7.9375 11.1875 7.9375 10.0625 10.1875 C8.0825 9.5275 6.1025 8.8675 4.0625 8.1875 C4.0625 6.5375 4.0625 4.8875 4.0625 3.1875 C1.4225 3.1875 -1.2175 3.1875 -3.9375 3.1875 C-3.834375 3.950625 -3.73125 4.71375 -3.625 5.5 C-3.9375 8.1875 -3.9375 8.1875 -6.0625 10 C-9.2482302 11.31584508 -11.52414864 11.42564079 -14.9375 11.1875 C-15.9275 13.1675 -16.9175 15.1475 -17.9375 17.1875 C-16.9475 17.5175 -15.9575 17.8475 -14.9375 18.1875 C-14.9375 20.1675 -14.9375 22.1475 -14.9375 24.1875 C-17.5775 24.1875 -20.2175 24.1875 -22.9375 24.1875 C-23.43683177 17.41878051 -23.33166413 11.66498991 -18.9375 6.1875 C-12.94532922 1.34071398 -7.62756311 0.00682862 0 0 Z " fill="#E3E3E5" transform="translate(76.9375,62.8125)"/>
<path d="M0 0 C0.99 0 1.98 0 3 0 C2 3 2 3 -1 5 C-1 6.32 -1 7.64 -1 9 C0.32 8.67 1.64 8.34 3 8 C3.33 6.68 3.66 5.36 4 4 C6.49064888 3.31292445 8.37886292 3 11 3 C10.67 3.556875 10.34 4.11375 10 4.6875 C8.84750995 7.35263324 8.69725595 9.12393149 9 12 C9.66 12.66 10.32 13.32 11 14 C11.375 16.9375 11.375 16.9375 11 20 C9.25 21.9375 9.25 21.9375 7 23 C4.08627811 22.53023667 1.90901219 21.46649216 -0.625 20 C-5.2829268 17.57436265 -9.8140763 17.21253786 -15 17 C-15 14.36 -15 11.72 -15 9 C-14.67 9 -14.34 9 -14 9 C-13.67 10.65 -13.34 12.3 -13 14 C-12.7525 13.38125 -12.505 12.7625 -12.25 12.125 C-11 10 -11 10 -8.9375 9 C-6.78719721 8.1704178 -6.78719721 8.1704178 -6.25 5.875 C-6.1675 5.25625 -6.085 4.6375 -6 4 C-5.38125 3.896875 -4.7625 3.79375 -4.125 3.6875 C-1.63473516 3.12474627 -1.63473516 3.12474627 0 0 Z " fill="#E6E6E8" transform="translate(90,43)"/>
<path d="M0 0 C0.74958984 0.00902344 1.49917969 0.01804687 2.27148438 0.02734375 C4.11862654 0.05087422 5.96560412 0.08674439 7.8125 0.125 C7.8125 4.415 7.8125 8.705 7.8125 13.125 C4.5125 13.125 1.2125 13.125 -2.1875 13.125 C-1.5275 9.495 -0.8675 5.865 -0.1875 2.125 C-1.1775 2.62 -1.1775 2.62 -2.1875 3.125 C-2.87843896 5.70451874 -2.87843896 5.70451874 -3.3125 8.6875 C-3.48007812 9.69941406 -3.64765625 10.71132812 -3.8203125 11.75390625 C-3.94148438 12.53636719 -4.06265625 13.31882812 -4.1875 14.125 C-4.8475 13.135 -5.5075 12.145 -6.1875 11.125 C-6.8475 10.795 -7.5075 10.465 -8.1875 10.125 C-8.8125 8.0625 -8.8125 8.0625 -9.1875 6.125 C-12.39793882 7.50688453 -14.23686365 9.04921903 -16.4375 11.75 C-16.95828125 12.38164063 -17.4790625 13.01328125 -18.015625 13.6640625 C-18.40234375 14.14617187 -18.7890625 14.62828125 -19.1875 15.125 C-20.1775 14.795 -21.1675 14.465 -22.1875 14.125 C-22.1875 13.465 -22.1875 12.805 -22.1875 12.125 C-20.52083333 11.125 -18.85416667 10.125 -17.1875 9.125 C-17.1875 8.465 -17.1875 7.805 -17.1875 7.125 C-16.56875 6.856875 -15.95 6.58875 -15.3125 6.3125 C-12.8879767 5.16943152 -12.8879767 5.16943152 -11.1875 2.125 C-7.39586973 -0.40275351 -4.37875969 -0.09943035 0 0 Z " fill="#EFEFF0" transform="translate(62.1875,109.875)"/>
<path d="M0 0 C2.61209777 0.9907957 3.94503081 1.93341934 5.73828125 4.10546875 C7.3813571 7.87487805 7.32786501 11.28510394 7.1875 15.3125 C7.16719727 16.42334961 7.16719727 16.42334961 7.14648438 17.55664062 C7.11135979 19.37141075 7.05755972 21.18580288 7 23 C4 23 4 23 1.8125 21 C1.214375 20.34 0.61625 19.68 0 19 C-1.98 19.99 -1.98 19.99 -4 21 C-3.34 19.35 -2.68 17.7 -2 16 C-5.76687864 16 -6.91190305 16.23537317 -10 18 C-9.61328125 17.53851563 -9.2265625 17.07703125 -8.828125 16.6015625 C-4.68385384 11.41096546 -2.17963878 6.25684545 0 0 Z " fill="#E9E9EB" transform="translate(91,67)"/>
<path d="M0 0 C2.52480693 2.52480693 2.55738633 4.13823034 3.125 7.625 C3.29257812 8.62789062 3.46015625 9.63078125 3.6328125 10.6640625 C3.75398438 11.43492188 3.87515625 12.20578125 4 13 C2.68 13.33 1.36 13.66 0 14 C0 15.32 0 16.64 0 18 C-0.66 18 -1.32 18 -2 18 C-2 17.34 -2 16.68 -2 16 C-4.0399719 17.36323743 -4.0399719 17.36323743 -6 19 C-6 19.66 -6 20.32 -6 21 C-4.02 21.33 -2.04 21.66 0 22 C0 22.33 0 22.66 0 23 C-6.15234375 23.09765625 -6.15234375 23.09765625 -8 23 C-9.98784899 21.01215101 -9.22997787 17.27299593 -9.25 14.5625 C-9.270625 13.86833984 -9.29125 13.17417969 -9.3125 12.45898438 C-9.328125 10.44140625 -9.328125 10.44140625 -9 7 C-8.01 6.34 -7.02 5.68 -6 5 C-4.80767387 2.94996045 -4.80767387 2.94996045 -4 1 C-3.67 1.66 -3.34 2.32 -3 3 C-2.01 2.01 -1.02 1.02 0 0 Z " fill="#EBEBED" transform="translate(50,84)"/>
<path d="M0 0 C3 0.25 3 0.25 5 2.25 C5.125 5.375 5.125 5.375 5 8.25 C3.02 9.24 3.02 9.24 1 10.25 C1 12.89 1 15.53 1 18.25 C4.3 18.25 7.6 18.25 11 18.25 C10.67 18.91 10.34 19.57 10 20.25 C1.585 20.745 1.585 20.745 -7 21.25 C-6.01 20.92 -5.02 20.59 -4 20.25 C-4 19.59 -4 18.93 -4 18.25 C-3.34 18.25 -2.68 18.25 -2 18.25 C-2.12375 16.97125 -2.2475 15.6925 -2.375 14.375 C-2.44460937 13.65570313 -2.51421875 12.93640625 -2.5859375 12.1953125 C-2.86374749 10.02331755 -2.86374749 10.02331755 -5 8.25 C-5.25 5.25 -5.25 5.25 -5 2.25 C-3 0.25 -3 0.25 0 0 Z " fill="#0A0A0A" transform="translate(74,41.75)"/>
<path d="M0 0 C2.31 1.98 4.62 3.96 7 6 C6.34 7.32 5.68 8.64 5 10 C4.63019987 14.04622502 4.63019987 14.04622502 7 17 C6.401875 16.67 5.80375 16.34 5.1875 16 C2.94613529 14.79212012 2.94613529 14.79212012 0 15 C-0.36980013 19.04622502 -0.36980013 19.04622502 2 22 C1.443125 21.690625 0.88625 21.38125 0.3125 21.0625 C-2.12540433 19.94238179 -4.36224186 19.43962636 -7 19 C-6.67 18.34 -6.34 17.68 -6 17 C-5.89702217 15.06344474 -5.8169147 13.12563651 -5.75 11.1875 C-5.2770101 4.5095239 -5.2770101 4.5095239 -2.4375 1.75 C-1.633125 1.1725 -0.82875 0.595 0 0 Z " fill="#E0E0E2" transform="translate(105,97)"/>
<path d="M0 0 C2 1.375 2 1.375 4 3 C4 3.66 4 4.32 4 5 C4.639375 5.268125 5.27875 5.53625 5.9375 5.8125 C8 7 8 7 9 10 C9.66 10.33 10.32 10.66 11 11 C11.66 11.33 12.32 11.66 13 12 C13.33 12.99 13.66 13.98 14 15 C16.00016466 16.20882096 16.00016466 16.20882096 18 17 C18 18.32 18 19.64 18 21 C17.01 21.66 16.02 22.32 15 23 C9 17 3 11 -3 5 C-1.125 1.125 -1.125 1.125 0 0 Z " fill="#F8F8FA" transform="translate(66,90)"/>
<path d="M0 0 C0.99 0 1.98 0 3 0 C6.0190678 5.31355932 6.0190678 5.31355932 5.9375 8.25 C4.7127503 10.53619945 3.30961784 10.94045701 1 12 C1.04640625 12.83144531 1.0928125 13.66289063 1.140625 14.51953125 C1.19476563 16.14955078 1.19476563 16.14955078 1.25 17.8125 C1.29640625 18.89144531 1.3428125 19.97039062 1.390625 21.08203125 C1 24 1 24 -0.6875 25.875 C-3.42326002 27.20591028 -5.22368103 27.30695996 -8.25 27.1875 C-9.14203125 27.16042969 -10.0340625 27.13335937 -10.953125 27.10546875 C-11.62859375 27.07066406 -12.3040625 27.03585938 -13 27 C-13.33 29.64 -13.66 32.28 -14 35 C-15.485 35.495 -15.485 35.495 -17 36 C-16.69230293 34.18667846 -16.37870936 32.37435655 -16.0625 30.5625 C-15.88847656 29.55316406 -15.71445313 28.54382813 -15.53515625 27.50390625 C-15 25 -15 25 -14 24 C-11.16027465 23.67648699 -8.31926263 23.4869571 -5.46875 23.28125 C-3.0586395 23.26614735 -3.0586395 23.26614735 -2 22 C-1.75585984 18.93016348 -1.61589326 15.8614327 -1.4765625 12.78515625 C-1.31929687 11.86605469 -1.16203125 10.94695312 -1 10 C-0.01 9.34 0.98 8.68 2 8 C1.34 5.36 0.68 2.72 0 0 Z " fill="#161616" transform="translate(99,90)"/>
<path d="M0 0 C0.99 0 1.98 0 3 0 C3.061875 0.61875 3.12375 1.2375 3.1875 1.875 C3.828919 4.27761141 3.828919 4.27761141 6.5625 5.25 C7.366875 5.4975 8.17125 5.745 9 6 C8.67 7.32 8.34 8.64 8 10 C7.01 9.67 6.02 9.34 5 9 C0.38201373 8.54778711 0.38201373 8.54778711 -3.8125 10.125 C-5.39269525 12.62004513 -6.18349681 15.17364281 -7 18 C-7.99 18 -8.98 18 -10 18 C-10.12375 16.865625 -10.2475 15.73125 -10.375 14.5625 C-10.58125 13.386875 -10.7875 12.21125 -11 11 C-11.66 10.67 -12.32 10.34 -13 10 C-12.67 9.01 -12.34 8.02 -12 7 C-10.88625 7.0928125 -10.88625 7.0928125 -9.75 7.1875 C-6.50382587 6.96616995 -5.48453844 5.98763075 -3 4 C-2.01 4 -1.02 4 0 4 C0 2.68 0 1.36 0 0 Z " fill="#E0E0E2" transform="translate(75,69)"/>
<path d="M0 0 C0.66 0.99 1.32 1.98 2 3 C3.31387169 4.35251497 4.64426252 5.68945377 6 7 C7.32 6.34 8.64 5.68 10 5 C9.608125 5.7425 9.21625 6.485 8.8125 7.25 C8.544375 8.1575 8.27625 9.065 8 10 C9.26352052 12.32511472 9.26352052 12.32511472 11 14 C9.375 15.625 9.375 15.625 7 17 C3.3977883 16.17449315 0.24566877 14.7476678 -3 13 C-3.125 9.625 -3.125 9.625 -3 6 C-2.34 5.34 -1.68 4.68 -1 4 C-0.3574765 1.93125966 -0.3574765 1.93125966 0 0 Z " fill="#E3E3E5" transform="translate(51,50)"/>
<path d="M0 0 C1.98 0.66 3.96 1.32 6 2 C6 6 6 6 5 9 C4.34 9 3.68 9 3 9 C2.34 7.68 1.68 6.36 1 5 C-3.26290179 5.47365575 -5.21548958 7.92238322 -8 11 C-8.99 12.485 -8.99 12.485 -10 14 C-9.01 14.33 -8.02 14.66 -7 15 C-8.175625 15.61875 -8.175625 15.61875 -9.375 16.25 C-12.05891656 18.0392777 -12.88098949 19.04988139 -14 22 C-14.33 21.01 -14.66 20.02 -15 19 C-15.66 19 -16.32 19 -17 19 C-16.67 18.4225 -16.34 17.845 -16 17.25 C-14.72924102 14.80116138 -14.72924102 14.80116138 -15 11 C-14.67 10.34 -14.34 9.68 -14 9 C-13.01 9.66 -12.02 10.32 -11 11 C-9.5393715 8.35261084 -9 7.10551666 -9 4 C-8.01 4.66 -7.02 5.32 -6 6 C-5.071875 5.01 -5.071875 5.01 -4.125 4 C-2 2 -2 2 0 2 C0 1.34 0 0.68 0 0 Z " fill="#ECECEE" transform="translate(48,66)"/>
<path d="M0 0 C2.5625 0.1875 2.5625 0.1875 4.5625 2.1875 C4.8125 4.6875 4.8125 4.6875 4.5625 7.1875 C3.9025 7.8475 3.2425 8.5075 2.5625 9.1875 C2.16202556 11.51025177 1.8227896 13.84489357 1.5625 16.1875 C2.8825 16.8475 4.2025 17.5075 5.5625 18.1875 C3.75 18.8125 3.75 18.8125 1.5625 19.1875 C-1.4375 17.1875 -1.4375 17.1875 -1.87890625 15.3125 C-1.91886719 14.61125 -1.95882812 13.91 -2 13.1875 C-2.15589542 9.78171696 -2.15589542 9.78171696 -4.4375 7.1875 C-3.73338608 0.28718354 -3.73338608 0.28718354 0 0 Z " fill="#131313" transform="translate(46.4375,46.8125)"/>
<path d="M0 0 C2.875 0.75 2.875 0.75 3.875 1.75 C4.1875 4.625 4.1875 4.625 3.875 7.75 C3.22402344 8.15089844 2.57304688 8.55179688 1.90234375 8.96484375 C-0.50286817 10.7055455 -0.50286817 10.7055455 -0.734375 14.32421875 C-0.80057291 15.6945155 -0.8468251 17.06589455 -0.875 18.4375 C-0.90464844 19.13939453 -0.93429688 19.84128906 -0.96484375 20.56445312 C-1.03537033 22.29235424 -1.08247068 24.0211832 -1.125 25.75 C-1.455 25.75 -1.785 25.75 -2.125 25.75 C-2.125 20.47 -2.125 15.19 -2.125 9.75 C-3.445 9.09 -4.765 8.43 -6.125 7.75 C-6.34917836 4.9851335 -6.44733508 3.28722513 -5 0.875 C-3.125 -0.25 -3.125 -0.25 0 0 Z " fill="#141414" transform="translate(41.125,81.25)"/>
<path d="M0 0 C0.33 0 0.66 0 1 0 C1.04898438 1.13179688 1.09796875 2.26359375 1.1484375 3.4296875 C1.22346514 4.91148339 1.29901297 6.393253 1.375 7.875 C1.4059375 8.62136719 1.436875 9.36773437 1.46875 10.13671875 C1.55643831 14.53473188 1.55643831 14.53473188 4 18 C5.31747324 18.69748583 6.64914193 19.36959957 8 20 C6.8553125 21.11375 6.8553125 21.11375 5.6875 22.25 C3.04428801 24.823554 3.04428801 24.823554 1.3125 27.3125 C0.879375 27.869375 0.44625 28.42625 0 29 C-0.66 29 -1.32 29 -2 29 C-3.625 26.5 -3.625 26.5 -5 24 C-3.35 24.33 -1.7 24.66 0 25 C0.66 24.01 1.32 23.02 2 22 C0.35 20.35 -1.3 18.7 -3 17 C-2.01 16.67 -1.02 16.34 0 16 C0 13.69 0 11.38 0 9 C-0.78375 9.825 -1.5675 10.65 -2.375 11.5 C-5 14 -5 14 -7 14 C-5.66666667 11.33333333 -4.33333333 8.66666667 -3 6 C-2.01 6 -1.02 6 0 6 C0 4.02 0 2.04 0 0 Z " fill="#EEEEEF" transform="translate(38,91)"/>
<path d="M0 0 C0.87398437 0.32484375 0.87398437 0.32484375 1.765625 0.65625 C0.38274199 3.42201602 -1.22326166 3.59888775 -4.046875 4.78125 C-8.611025 7.00147133 -10.66936971 8.83135481 -12.5625 13.51953125 C-13.61906575 16.87965606 -14.49591476 20.2101022 -15.234375 23.65625 C-15.564375 23.65625 -15.894375 23.65625 -16.234375 23.65625 C-16.43850861 17.91782749 -16.50578954 13.05085953 -14.234375 7.65625 C-15.554375 6.99625 -16.874375 6.33625 -18.234375 5.65625 C-18.234375 4.99625 -18.234375 4.33625 -18.234375 3.65625 C-16.501875 4.0584375 -16.501875 4.0584375 -14.734375 4.46875 C-10.92843804 4.98835487 -9.1370567 4.30742191 -5.984375 2.15625 C-5.36046875 1.6715625 -4.7365625 1.186875 -4.09375 0.6875 C-2.234375 -0.34375 -2.234375 -0.34375 0 0 Z " fill="#161617" transform="translate(68.234375,61.34375)"/>
<path d="M0 0 C0.33 0.66 0.66 1.32 1 2 C1.66 2 2.32 2 3 2 C1.43525633 6.22480792 -1.45364158 8.35761529 -5 11 C-7.875 12.3125 -7.875 12.3125 -10 13 C-10 12.34 -10 11.68 -10 11 C-10.99 11 -11.98 11 -13 11 C-12.125 6.125 -12.125 6.125 -11 5 C-9.32115762 4.6068352 -7.63149955 4.25914548 -5.9375 3.9375 C-5.01839844 3.76089844 -4.09929687 3.58429688 -3.15234375 3.40234375 C-2.44207031 3.26957031 -1.73179688 3.13679688 -1 3 C-0.67 2.01 -0.34 1.02 0 0 Z " fill="#1E1E1E" transform="translate(84,75)"/>
<path d="M0 0 C0.33 0 0.66 0 1 0 C1 4.29 1 8.58 1 13 C-3.455 13.495 -3.455 13.495 -8 14 C-1.4 14.33 5.2 14.66 12 15 C12 15.33 12 15.66 12 16 C8.37506666 16.05787784 4.75025143 16.0935542 1.125 16.125 C0.09246094 16.14175781 -0.94007812 16.15851563 -2.00390625 16.17578125 C-2.99003906 16.18222656 -3.97617188 16.18867187 -4.9921875 16.1953125 C-6.35899658 16.21102295 -6.35899658 16.21102295 -7.75341797 16.22705078 C-10 16 -10 16 -12 14 C-12.37076135 9.18010242 -11.75210338 5.48976491 -10 1 C-9.34 1 -8.68 1 -8 1 C-8.14107747 2.45880109 -8.28802415 3.91703551 -8.4375 5.375 C-8.51871094 6.18710938 -8.59992187 6.99921875 -8.68359375 7.8359375 C-9 10 -9 10 -10 12 C-6.7 12 -3.4 12 0 12 C0 8.04 0 4.08 0 0 Z " fill="#525253" transform="translate(70,111)"/>
<path d="M0 0 C1.9375 0.8125 1.9375 0.8125 4 2 C4.33 2.99 4.66 3.98 5 5 C5.99 5.33 6.98 5.66 8 6 C8 8.31 8 10.62 8 13 C5.03 13 2.06 13 -1 13 C-0.67 12.01 -0.34 11.02 0 10 C0.99 10 1.98 10 3 10 C2.319375 9.46375 1.63875 8.9275 0.9375 8.375 C-1 6 -1 6 -0.75 2.75 C-0.5025 1.8425 -0.255 0.935 0 0 Z " fill="#F3F3F5" transform="translate(75,110)"/>
<path d="M0 0 C1.91635217 -0.05423638 3.83314925 -0.09289963 5.75 -0.125 C7.35101563 -0.15980469 7.35101563 -0.15980469 8.984375 -0.1953125 C11.92470106 -0.00487687 13.52361878 0.47329896 16 2 C15.125 7.75 15.125 7.75 14 10 C12.02 9.34 10.04 8.68 8 8 C7.67 6.35 7.34 4.7 7 3 C4.69 2.67 2.38 2.34 0 2 C0 1.34 0 0.68 0 0 Z " fill="#F2F2F4" transform="translate(73,63)"/>
<path d="M0 0 C3.3125 0.1875 3.3125 0.1875 7 1 C8.75 3.375 8.75 3.375 10 6 C11.58245275 7.75149165 11.58245275 7.75149165 13 9 C12.67 9.99 12.34 10.98 12 12 C11.59007813 11.50628906 11.18015625 11.01257813 10.7578125 10.50390625 C10.21898438 9.86324219 9.68015625 9.22257812 9.125 8.5625 C8.59132813 7.92441406 8.05765625 7.28632812 7.5078125 6.62890625 C6.0777243 4.89194996 6.0777243 4.89194996 4 4 C4 5.98 4 7.96 4 10 C4.99 10.33 5.98 10.66 7 11 C7 11.99 7 12.98 7 14 C6.01 14.33 5.02 14.66 4 15 C3.67 15.66 3.34 16.32 3 17 C5.64 17 8.28 17 11 17 C11 17.33 11 17.66 11 18 C8.03 18 5.06 18 2 18 C1.93941406 17.03578125 1.87882812 16.0715625 1.81640625 15.078125 C1.73261719 13.81484375 1.64882812 12.5515625 1.5625 11.25 C1.48128906 9.99703125 1.40007812 8.7440625 1.31640625 7.453125 C1.07484478 4.81682447 0.75716066 2.51962706 0 0 Z " fill="#EAEAEC" transform="translate(71,106)"/>
<path d="M0 0 C2.0625 0.4375 2.0625 0.4375 4 1 C3.49396008 3.16874252 3.00016187 4.99967627 2 7 C2 8.32 2 9.64 2 11 C-0.97 10.67 -3.94 10.34 -7 10 C-7 8.68 -7 7.36 -7 6 C-5.68 5.34 -4.36 4.68 -3 4 C-2.67 4.33 -2.34 4.66 -2 5 C-1.855625 4.360625 -1.71125 3.72125 -1.5625 3.0625 C-1 1 -1 1 0 0 Z " fill="#F3F3F5" transform="translate(51,96)"/>
<path d="M0 0 C0.144375 0.61875 0.28875 1.2375 0.4375 1.875 C0.93152225 4.03258322 0.93152225 4.03258322 2 6 C0.68 5.67 -0.64 5.34 -2 5 C-2.6496875 5.99 -2.6496875 5.99 -3.3125 7 C-3.869375 7.66 -4.42625 8.32 -5 9 C-5.99 9 -6.98 9 -8 9 C-12 4.77142857 -12 4.77142857 -12 1 C-10.37512529 0.83211627 -8.75009558 0.66573213 -7.125 0.5 C-6.22007813 0.4071875 -5.31515625 0.314375 -4.3828125 0.21875 C-2 0 -2 0 0 0 Z " fill="#F4F4F6" transform="translate(98,116)"/>
<path d="M0 0 C3.81684226 1.55500981 6.19195732 4.03595495 9 7 C8.34 8.32 7.68 9.64 7 11 C6.01 11 5.02 11 4 11 C3.7525 10.38125 3.505 9.7625 3.25 9.125 C1.79371361 6.64931313 0.62187494 6.04874998 -2 5 C-2 2 -2 2 0 0 Z " fill="#F8F8FA" transform="translate(36,51)"/>
<path d="M0 0 C3.76534292 4.91131686 4.13130607 7.99596701 4.0625 14.125 C4.05798828 14.87910156 4.05347656 15.63320312 4.04882812 16.41015625 C4.03703499 18.27347127 4.01909942 20.13674555 4 22 C3.01 22 2.02 22 1 22 C-0.4297577 17.7107269 -0.0192291 13.61889862 0.0625 9.12890625 C0.00983883 6.4925563 -0.35820673 4.51560039 -1 2 C-0.67 1.34 -0.34 0.68 0 0 Z " fill="#282829" transform="translate(97,68)"/>
<path d="M0 0 C0.99 0.66 1.98 1.32 3 2 C3.4375 4.9375 3.4375 4.9375 3 8 C1.25 9.9375 1.25 9.9375 -1 11 C-3.68780658 10.83710263 -4.74129004 10.23099103 -6.75 8.4375 C-7.1625 7.963125 -7.575 7.48875 -8 7 C-6.68 6.34 -5.36 5.68 -4 5 C-4 4.01 -4 3.02 -4 2 C-3.01 2 -2.02 2 -1 2 C-0.67 1.34 -0.34 0.68 0 0 Z " fill="#E6E6E8" transform="translate(98,55)"/>
<path d="M0 0 C3.875 1.75 3.875 1.75 5 4 C5.66 4.33 6.32 4.66 7 5 C7 6.98 7 8.96 7 11 C4 11 4 11 2.17578125 9.46875 C1.56089844 8.8190625 0.94601563 8.169375 0.3125 7.5 C-0.31011719 6.8503125 -0.93273437 6.200625 -1.57421875 5.53125 C-2.04472656 5.0259375 -2.51523438 4.520625 -3 4 C-2.01 2.68 -1.02 1.36 0 0 Z " fill="#F3F3F5" transform="translate(91,76)"/>
<path d="M0 0 C2.046875 3.71875 2.046875 3.71875 1.625 6.25 C1.41875 6.8275 1.2125 7.405 1 8 C0.34 8 -0.32 8 -1 8 C-1.66 9.32 -2.32 10.64 -3 12 C-4.32 11.67 -5.64 11.34 -7 11 C-7 7 -7 7 -5.46875 5.078125 C-4.8190625 4.47484375 -4.169375 3.8715625 -3.5 3.25 C-2.8503125 2.63640625 -2.200625 2.0228125 -1.53125 1.390625 C-1.0259375 0.93171875 -0.520625 0.4728125 0 0 Z " fill="#F8F8FA" transform="translate(96,50)"/>
<path d="M0 0 C2.62187494 1.04874998 3.79371361 1.64931313 5.25 4.125 C5.4975 4.74375 5.745 5.3625 6 6 C4.02 6.99 4.02 6.99 2 8 C2 11.3 2 14.6 2 18 C1.67 18 1.34 18 1 18 C0.8046875 15.98177083 0.609375 13.96354167 0.4140625 11.9453125 C0.13625251 9.77331755 0.13625251 9.77331755 -2 8 C-2.25 5 -2.25 5 -2 2 C-1.34 1.34 -0.68 0.68 0 0 Z " fill="#353535" transform="translate(71,42)"/>
<path d="M0 0 C2 1.375 2 1.375 4 3 C4 3.66 4 4.32 4 5 C4.66 5 5.32 5 6 5 C6 7.64 6 10.28 6 13 C-1.48291572 6.84965831 -1.48291572 6.84965831 -4 3 C-2.68 2.01 -1.36 1.02 0 0 Z " fill="#F8F8FA" transform="translate(91,95)"/>
<path d="M0 0 C0.47050781 0.40992187 0.94101563 0.81984375 1.42578125 1.2421875 C2.04839844 1.78101562 2.67101562 2.31984375 3.3125 2.875 C4.23482422 3.67550781 4.23482422 3.67550781 5.17578125 4.4921875 C7.13498212 6.1640447 7.13498212 6.1640447 10 8 C11.32 7.01 12.64 6.02 14 5 C14.33 6.32 14.66 7.64 15 9 C14.01 9.66 13.02 10.32 12 11 C11.41518879 13.88595946 11.41518879 13.88595946 11.3125 17.125 C11.24675781 18.22070312 11.18101563 19.31640625 11.11328125 20.4453125 C11.07589844 21.28835937 11.03851563 22.13140625 11 23 C10.67 23 10.34 23 10 23 C10 19.04 10 15.08 10 11 C9.34 11 8.68 11 8 11 C6.62689293 9.70766393 5.28965176 8.37562854 4 7 C2.02 7.99 2.02 7.99 0 9 C0.556875 7.88625 0.556875 7.88625 1.125 6.75 C2.3116501 4.0648155 2.3116501 4.0648155 1.0546875 1.828125 C0.70664063 1.22484375 0.35859375 0.6215625 0 0 Z " fill="#E1E1E2" transform="translate(87,89)"/>
<path d="M0 0 C3 3.75 3 3.75 3 6 C3.66 6 4.32 6 5 6 C5 5.34 5 4.68 5 4 C5.99 3.67 6.98 3.34 8 3 C8.33 3.99 8.66 4.98 9 6 C10.65 6.33 12.3 6.66 14 7 C14 7.33 14 7.66 14 8 C8.72 8 3.44 8 -2 8 C-2.33 6.35 -2.66 4.7 -3 3 C-1.5625 1.1875 -1.5625 1.1875 0 0 Z " fill="#E7E7E9" transform="translate(55,99)"/>
<path d="M0 0 C0.66 1.32 1.32 2.64 2 4 C2.99 4 3.98 4 5 4 C5 5.98 5 7.96 5 10 C2.36 10 -0.28 10 -3 10 C-3.36923077 3.47692308 -3.36923077 3.47692308 -1.5 1.0625 C-1.005 0.711875 -0.51 0.36125 0 0 Z " fill="#F6F6F8" transform="translate(57,77)"/>
<path d="M0 0 C0.66 1.32 1.32 2.64 2 4 C4.97 4 7.94 4 11 4 C11 4.66 11 5.32 11 6 C4.07 6 -2.86 6 -10 6 C-9.67 5.34 -9.34 4.68 -9 4 C-6.03 4 -3.06 4 0 4 C0 2.68 0 1.36 0 0 Z " fill="#040404" transform="translate(71,120)"/>
<path d="M0 0 C1.32 1.65 2.64 3.3 4 5 C3.01 6.98 2.02 8.96 1 11 C1.66 11.33 2.32 11.66 3 12 C2.01 12.33 1.02 12.66 0 13 C-0.33 11.68 -0.66 10.36 -1 9 C-1.99 9.66 -2.98 10.32 -4 11 C-3.48964169 6.6109185 -2.47785723 3.66291938 0 0 Z " fill="#E0E0E2" transform="translate(58,69)"/>
<path d="M0 0 C3.63 0 7.26 0 11 0 C11 0.66 11 1.32 11 2 C8.03 2 5.06 2 2 2 C1.67 4.64 1.34 7.28 1 10 C0.01 10.33 -0.98 10.66 -2 11 C-1.34 7.37 -0.68 3.74 0 0 Z " fill="#131313" transform="translate(84,115)"/>
<path d="M0 0 C0.33 0 0.66 0 1 0 C1.06058594 0.99902344 1.12117188 1.99804688 1.18359375 3.02734375 C1.26738281 4.31769531 1.35117187 5.60804687 1.4375 6.9375 C1.51871094 8.22527344 1.59992187 9.51304688 1.68359375 10.83984375 C1.64919188 13.86023957 1.64919188 13.86023957 3 15 C4.70563778 15.15740605 6.41727244 15.25093392 8.12890625 15.31640625 C9.68061523 15.37924805 9.68061523 15.37924805 11.26367188 15.44335938 C12.35228516 15.48267578 13.44089844 15.52199219 14.5625 15.5625 C15.65498047 15.60568359 16.74746094 15.64886719 17.87304688 15.69335938 C20.58189564 15.79982068 23.29083992 15.90183516 26 16 C26 16.33 26 16.66 26 17 C21.85418113 17.02886751 17.70838784 17.04675327 13.5625 17.0625 C11.78649414 17.07506836 11.78649414 17.07506836 9.97460938 17.08789062 C8.84990234 17.09111328 7.72519531 17.09433594 6.56640625 17.09765625 C5.00321655 17.10551147 5.00321655 17.10551147 3.40844727 17.11352539 C1 17 1 17 0 16 C-0.07319621 13.30345146 -0.09242537 10.63308542 -0.0625 7.9375 C-0.05798828 7.17888672 -0.05347656 6.42027344 -0.04882812 5.63867188 C-0.0370068 3.75908129 -0.01907078 1.87953101 0 0 Z " fill="#040404" transform="translate(40,92)"/>
<path d="M0 0 C0.33 0.99 0.66 1.98 1 3 C1.66 3 2.32 3 3 3 C3 3.66 3 4.32 3 5 C1 6.625 1 6.625 -1 8 C-0.34 9.65 0.32 11.3 1 13 C-0.32 12.67 -1.64 12.34 -3 12 C-3 14.97 -3 17.94 -3 21 C-3.33 21 -3.66 21 -4 21 C-4.08076963 18.54101345 -4.14037143 16.08466258 -4.1875 13.625 C-4.21263672 12.92632812 -4.23777344 12.22765625 -4.26367188 11.5078125 C-4.29296875 9.4765625 -4.29296875 9.4765625 -4 6 C-3.01 5.34 -2.02 4.68 -1 4 C-0.27617533 1.94074861 -0.27617533 1.94074861 0 0 Z " fill="#BABABC" transform="translate(45,85)"/>
<path d="M0 0 C3.63 0 7.26 0 11 0 C8.86889399 3.19665902 7.40670513 4.33819262 4 6 C3.01 5.67 2.02 5.34 1 5 C0.67 3.35 0.34 1.7 0 0 Z " fill="#E8E8EA" transform="translate(55,90)"/>
<path d="M0 0 C2.1875 1.4375 2.1875 1.4375 4 3 C3.3125 4.9375 3.3125 4.9375 2 7 C-0.625 7.75 -0.625 7.75 -3 8 C-3 5.69 -3 3.38 -3 1 C-2.01 0.67 -1.02 0.34 0 0 Z " fill="#F0F0F2" transform="translate(51,55)"/>
<path d="M0 0 C1.875 0.75 1.875 0.75 2.875 2.75 C1.9375 4.875 1.9375 4.875 0.875 6.75 C0.25625 6.564375 -0.3625 6.37875 -1 6.1875 C-3.16660178 5.51313824 -3.16660178 5.51313824 -5.125 6.75 C-5.3125 4.375 -5.3125 4.375 -5.125 1.75 C-2.125 -0.25 -2.125 -0.25 0 0 Z " fill="#5A5A5B" transform="translate(103.125,48.25)"/>
<path d="M0 0 C1.65 0 3.3 0 5 0 C6.4783226 2.95664519 6.06032783 5.74229737 6 9 C4.125 8.75 4.125 8.75 2 8 C-0.02755186 5.06004981 0 3.72295997 0 0 Z " fill="#EBEBED" transform="translate(92,72)"/>
<path d="M0 0 C0.99 0 1.98 0 3 0 C5.375 2.5625 5.375 2.5625 7 6 C6.42416422 8.72163894 5.38211607 10.53193559 4 13 C3.01 12.67 2.02 12.34 1 12 C0.67 11.01 0.34 10.02 0 9 C0.66 8.34 1.32 7.68 2 7 C1.6730244 4.38419521 1.17960932 2.35921863 0 0 Z " fill="#E4E4E6" transform="translate(104,48)"/>
<path d="M0 0 C0.66 0 1.32 0 2 0 C2 1.32 2 2.64 2 4 C4.64 4.33 7.28 4.66 10 5 C9.67 6.65 9.34 8.3 9 10 C8.01 10 7.02 10 6 10 C6 9.34 6 8.68 6 8 C4.02 7.34 2.04 6.68 0 6 C0 4.02 0 2.04 0 0 Z " fill="#101010" transform="translate(79,67)"/>
<path d="M0 0 C2.64 0 5.28 0 8 0 C7.01 0.495 7.01 0.495 6 1 C5.34786708 3.02463255 5.34786708 3.02463255 5 5 C5 4.34 5 3.68 5 3 C4.01 3 3.02 3 2 3 C2 4.32 2 5.64 2 7 C0.02 7 -1.96 7 -4 7 C-3.67 6.34 -3.34 5.68 -3 5 C-2.01 5 -1.02 5 0 5 C0 3.35 0 1.7 0 0 Z " fill="#282828" transform="translate(73,66)"/>
<path d="M0 0 C1.32 0.66 2.64 1.32 4 2 C4 3.32 4 4.64 4 6 C3.01 6.66 2.02 7.32 1 8 C-0.32 6.35 -1.64 4.7 -3 3 C-2.01 2.01 -1.02 1.02 0 0 Z " fill="#F8F8FA" transform="translate(105,100)"/>
<path d="M0 0 C0.33 0 0.66 0 1 0 C1.33 5.61 1.66 11.22 2 17 C1.34 17 0.68 17 0 17 C0 14.36 0 11.72 0 9 C-0.78375 9.825 -1.5675 10.65 -2.375 11.5 C-5 14 -5 14 -7 14 C-5.66666667 11.33333333 -4.33333333 8.66666667 -3 6 C-2.01 6 -1.02 6 0 6 C0 4.02 0 2.04 0 0 Z " fill="#D9D9DB" transform="translate(38,91)"/>
<path d="M0 0 C1.134375 0.020625 2.26875 0.04125 3.4375 0.0625 C2.18214015 3.82857955 0.90866415 4.32691793 -2.5625 6.0625 C-3.5525 6.0625 -4.5425 6.0625 -5.5625 6.0625 C-4.48849278 0.07874549 -4.48849278 0.07874549 0 0 Z " fill="#DBDBDD" transform="translate(76.5625,79.9375)"/>
<path d="M0 0 C0.66 0 1.32 0 2 0 C2 0.66 2 1.32 2 2 C2.66 2 3.32 2 4 2 C3.6875 3.875 3.6875 3.875 3 6 C2.01 6.66 1.02 7.32 0 8 C-0.99 7.01 -1.98 6.02 -3 5 C-1.125 1.125 -1.125 1.125 0 0 Z " fill="#F9F9FB" transform="translate(46,90)"/>
<path d="M0 0 C0.33 0.66 0.66 1.32 1 2 C1.99 2.33 2.98 2.66 4 3 C4 5.64 4 8.28 4 11 C4.66 11.33 5.32 11.66 6 12 C3.03 12 0.06 12 -3 12 C-3 11.67 -3 11.34 -3 11 C-1.35 11 0.3 11 2 11 C2 8.69 2 6.38 2 4 C1.01 3.67 0.02 3.34 -1 3 C-0.67 2.01 -0.34 1.02 0 0 Z " fill="#101010" transform="translate(61,77)"/>
<path d="M0 0 C1.32 0.99 2.64 1.98 4 3 C3.34 4.32 2.68 5.64 2 7 C1.01 7 0.02 7 -1 7 C-2.6875 5 -2.6875 5 -4 3 C-2.68 2.01 -1.36 1.02 0 0 Z " fill="#F9F9FB" transform="translate(91,85)"/>
<path d="M0 0 C1.32 0.99 2.64 1.98 4 3 C3.34 4.32 2.68 5.64 2 7 C1.01 7 0.02 7 -1 7 C-1.66 5.68 -2.32 4.36 -3 3 C-2.01 2.01 -1.02 1.02 0 0 Z " fill="#F9F9FB" transform="translate(106,80)"/>
<path d="M0 0 C4.70588235 0.70588235 4.70588235 0.70588235 6 2 C6.04080783 3.99958364 6.04254356 6.00045254 6 8 C4.02 8.99 4.02 8.99 2 10 C2.33 8.02 2.66 6.04 3 4 C1.68 3.01 0.36 2.02 -1 1 C-0.67 0.67 -0.34 0.34 0 0 Z " fill="#1C1C1C" transform="translate(73,42)"/>
<path d="M0 0 C2.125 0.375 2.125 0.375 4 1 C3.6875 2.875 3.6875 2.875 3 5 C2.01 5.66 1.02 6.32 0 7 C0 6.34 0 5.68 0 5 C-1.32 5.33 -2.64 5.66 -4 6 C-2.84826645 3.53199953 -1.95216435 1.95216435 0 0 Z " fill="#F8F8FA" transform="translate(66,111)"/>
<path d="M0 0 C3.32532111 2.69192661 4.52454943 6.06546515 6 10 C6 10.99 6 11.98 6 13 C5.34 13 4.68 13 4 13 C-0.59225513 4.738041 -0.59225513 4.738041 0 0 Z " fill="#1C1C1C" transform="translate(54,92)"/>
<path d="M0 0 C1.32 0.99 2.64 1.98 4 3 C3.34 4.32 2.68 5.64 2 7 C1.01 7 0.02 7 -1 7 C-1.66 5.68 -2.32 4.36 -3 3 C-2.01 2.01 -1.02 1.02 0 0 Z " fill="#F9F9FB" transform="translate(46,70)"/>
<path d="M0 0 C-1.26115314 2.52230627 -2.37533425 2.88890155 -4.875 4.125 C-5.92300781 4.65480469 -5.92300781 4.65480469 -6.9921875 5.1953125 C-9 6 -9 6 -12 6 C-10.9200311 2.86809018 -9.99049526 1.99400788 -7.125 0.1875 C-4.02316031 -0.99119908 -2.9798555 -1.26070809 0 0 Z " fill="#262626" transform="translate(70,62)"/>
<path d="M0 0 C1.32 0.99 2.64 1.98 4 3 C3.34 4.32 2.68 5.64 2 7 C1.01 7 0.02 7 -1 7 C-1.66 5.68 -2.32 4.36 -3 3 C-2.01 2.01 -1.02 1.02 0 0 Z " fill="#F9F9FB" transform="translate(86,50)"/>
<path d="M0 0 C1.32 0.66 2.64 1.32 4 2 C4 3.32 4 4.64 4 6 C3.01 6.66 2.02 7.32 1 8 C0.34 7.34 -0.32 6.68 -1 6 C-0.625 2.875 -0.625 2.875 0 0 Z " fill="#F9F9FB" transform="translate(75,110)"/>
<path d="M0 0 C0.66 0 1.32 0 2 0 C2 0.66 2 1.32 2 2 C2.66 2 3.32 2 4 2 C3.67 3.32 3.34 4.64 3 6 C1.35 6 -0.3 6 -2 6 C-2 2 -2 2 0 0 Z " fill="#F9F9FB" transform="translate(46,100)"/>
<path d="M0 0 C1.32 0.99 2.64 1.98 4 3 C3.34 4.32 2.68 5.64 2 7 C-0.475 6.01 -0.475 6.01 -3 5 C-1.125 1.125 -1.125 1.125 0 0 Z " fill="#F0F0F2" transform="translate(56,60)"/>
<path d="M0 0 C0.66 0 1.32 0 2 0 C1.67 1.65 1.34 3.3 1 5 C0.01 5.33 -0.98 5.66 -2 6 C-2 7.65 -2 9.3 -2 11 C-2.33 11 -2.66 11 -3 11 C-3 9.35 -3 7.7 -3 6 C-3.99 5.67 -4.98 5.34 -6 5 C-5.67 4.01 -5.34 3.02 -5 2 C-3.02 2.495 -3.02 2.495 -1 3 C-0.67 2.01 -0.34 1.02 0 0 Z " fill="#080808" transform="translate(105,51)"/>
<path d="M0 0 C2.0625 0.4375 2.0625 0.4375 4 1 C4 1.99 4 2.98 4 4 C3.01 4.33 2.02 4.66 1 5 C0.67 5.66 0.34 6.32 0 7 C2.64 7 5.28 7 8 7 C8 7.33 8 7.66 8 8 C5.03 8 2.06 8 -1 8 C-1.04241723 5.66705225 -1.04092937 3.33297433 -1 1 C-0.67 0.67 -0.34 0.34 0 0 Z " fill="#DDDDDF" transform="translate(74,116)"/>
<path d="M0 0 C1.32 0.99 2.64 1.98 4 3 C3.67 3.99 3.34 4.98 3 6 C1.35 6 -0.3 6 -2 6 C-2 2 -2 2 0 0 Z " fill="#F9F9FB" transform="translate(66,100)"/>
<path d="M0 0 C1.32 0.66 2.64 1.32 4 2 C3.34 3.32 2.68 4.64 2 6 C1.01 6 0.02 6 -1 6 C-1.66 5.01 -2.32 4.02 -3 3 C-2.01 2.01 -1.02 1.02 0 0 Z " fill="#F9F9FB" transform="translate(81,86)"/>
<path d="M0 0 C1.32 0.66 2.64 1.32 4 2 C3.34 3.32 2.68 4.64 2 6 C1.01 6 0.02 6 -1 6 C-1.66 5.01 -2.32 4.02 -3 3 C-2.01 2.01 -1.02 1.02 0 0 Z " fill="#F9F9FB" transform="translate(86,81)"/>
<path d="M0 0 C1.32 0.66 2.64 1.32 4 2 C3.34 3.32 2.68 4.64 2 6 C1.01 6 0.02 6 -1 6 C-1.66 5.01 -2.32 4.02 -3 3 C-2.01 2.01 -1.02 1.02 0 0 Z " fill="#F9F9FB" transform="translate(91,76)"/>
<path d="M0 0 C1.9375 0.8125 1.9375 0.8125 4 2 C4.33 2.99 4.66 3.98 5 5 C3.68 5 2.36 5 1 5 C1 5.99 1 6.98 1 8 C0.01 8 -0.98 8 -2 8 C-1.34 5.36 -0.68 2.72 0 0 Z " fill="#DADADC" transform="translate(91,67)"/>
<path d="M0 0 C0.99 0 1.98 0 3 0 C3.1875 3.375 3.1875 3.375 3 7 C-0.18762365 9.12508244 -2.26512223 9.5020163 -6 10 C-5.195625 9.46375 -4.39125 8.9275 -3.5625 8.375 C-0.53491576 5.56894631 -0.27489191 4.03174806 0 0 Z " fill="#2D2D2D" transform="translate(101,57)"/>
<path d="M0 0 C0.33 0.99 0.66 1.98 1 3 C-1.475 4.485 -1.475 4.485 -4 6 C-4 5.34 -4 4.68 -4 4 C-7.3 4 -10.6 4 -14 4 C-14 3.67 -14 3.34 -14 3 C-12.86111328 2.92652344 -12.86111328 2.92652344 -11.69921875 2.8515625 C-10.20841797 2.73941406 -10.20841797 2.73941406 -8.6875 2.625 C-7.70136719 2.55539063 -6.71523437 2.48578125 -5.69921875 2.4140625 C-2.78471567 2.16134528 -2.78471567 2.16134528 0 0 Z " fill="#232324" transform="translate(99,111)"/>
<path d="M0 0 C1.32 0.99 2.64 1.98 4 3 C3.67 3.99 3.34 4.98 3 6 C0.03 5.505 0.03 5.505 -3 5 C-1.125 1.125 -1.125 1.125 0 0 Z " fill="#F8F8FA" transform="translate(41,75)"/>
<path d="M0 0 C1.65 1.32 3.3 2.64 5 4 C3.35 5.32 1.7 6.64 0 8 C-0.38063221 5.6739143 -0.71269945 3.33944736 -1 1 C-0.67 0.67 -0.34 0.34 0 0 Z " fill="#F7F7F9" transform="translate(46,80)"/>
<path d="M0 0 C0.144375 0.61875 0.28875 1.2375 0.4375 1.875 C0.93152225 4.03258322 0.93152225 4.03258322 2 6 C-0.475 5.01 -0.475 5.01 -3 4 C-3 3.34 -3 2.68 -3 2 C-7.455 2.495 -7.455 2.495 -12 3 C-12 2.34 -12 1.68 -12 1 C-10.37512529 0.83211627 -8.75009558 0.66573213 -7.125 0.5 C-6.22007813 0.4071875 -5.31515625 0.314375 -4.3828125 0.21875 C-2 0 -2 0 0 0 Z " fill="#D2D2D4" transform="translate(98,116)"/>
<path d="M0 0 C1.32 0.33 2.64 0.66 4 1 C1.03 3.97 -1.94 6.94 -5 10 C-5.66 9.67 -6.32 9.34 -7 9 C-6.57847656 8.51789063 -6.15695313 8.03578125 -5.72265625 7.5390625 C-5.17480469 6.90742187 -4.62695312 6.27578125 -4.0625 5.625 C-3.51722656 4.99851562 -2.97195312 4.37203125 -2.41015625 3.7265625 C-0.93041376 2.04367666 -0.93041376 2.04367666 0 0 Z " fill="#E3E3E5" transform="translate(88,75)"/>
<path d="M0 0 C2.29013653 3.4352048 2.17842973 4.985331 2 9 C1.01 9 0.02 9 -1 9 C-1.33 6.36 -1.66 3.72 -2 1 C-1.34 0.67 -0.68 0.34 0 0 Z " fill="#EDEDEF" transform="translate(66,78)"/>
<path d="M0 0 C-0.66 1.32 -1.32 2.64 -2 4 C-2.99 4 -3.98 4 -5 4 C-5.33 2.68 -5.66 1.36 -6 0 C-3.50907189 -1.24546405 -2.58919267 -0.7767578 0 0 Z " fill="#F4F4F6" transform="translate(65,68)"/>
<path d="M0 0 C1.2065625 0.0309375 1.2065625 0.0309375 2.4375 0.0625 C2.1075 2.0425 1.7775 4.0225 1.4375 6.0625 C0.1175 6.0625 -1.2025 6.0625 -2.5625 6.0625 C-2.94468767 4.40635343 -3.27645102 2.73792976 -3.5625 1.0625 C-2.5625 0.0625 -2.5625 0.0625 0 0 Z " fill="#7F7F80" transform="translate(46.5625,46.9375)"/>
<path d="M0 0 C1.32 0.66 2.64 1.32 4 2 C3.34 3.32 2.68 4.64 2 6 C0.68 5.34 -0.64 4.68 -2 4 C-1.34 2.68 -0.68 1.36 0 0 Z " fill="#CFCFD0" transform="translate(73,44)"/>
<path d="M0 0 C2.475 0.495 2.475 0.495 5 1 C4.67 2.32 4.34 3.64 4 5 C2.68 4.67 1.36 4.34 0 4 C0 2.68 0 1.36 0 0 Z " fill="#DBDBDC" transform="translate(38,84)"/>
<path d="M0 0 C1.41377341 2.63904371 2.37240135 5.07120629 3 8 C2.21625 7.484375 1.4325 6.96875 0.625 6.4375 C-0.24125 5.963125 -1.1075 5.48875 -2 5 C-2.99 5.495 -2.99 5.495 -4 6 C-2.84826645 3.53199953 -1.95216435 1.95216435 0 0 Z " fill="#E5E5E7" transform="translate(68,46)"/>
<path d="M0 0 C0.99 0 1.98 0 3 0 C3 1.98 3 3.96 3 6 C0.36 6 -2.28 6 -5 6 C-5 5.67 -5 5.34 -5 5 C-3.35 4.67 -1.7 4.34 0 4 C0 2.68 0 1.36 0 0 Z " fill="#EEEEF0" transform="translate(59,81)"/>
<path d="M0 0 C-1.175625 0.86625 -1.175625 0.86625 -2.375 1.75 C-4.80047244 3.82897637 -5.85694417 5.09040333 -7 8 C-7.6875 5.6875 -7.6875 5.6875 -8 3 C-5.90994325 -0.36731366 -3.75103888 -0.30413829 0 0 Z " fill="#DFDFE0" transform="translate(41,80)"/>
<path d="M0 0 C0.33 0 0.66 0 1 0 C1.061875 0.94875 1.12375 1.8975 1.1875 2.875 C1.455625 3.90625 1.72375 4.9375 2 6 C4.46255685 7.45291273 4.46255685 7.45291273 7 8 C5.02 8.99 5.02 8.99 3 10 C2.01 9.34 1.02 8.68 0 8 C-0.40843923 5.28796348 -0.13336867 2.7562858 0 0 Z " fill="#363636" transform="translate(45,56)"/>
<path d="M0 0 C1.32 0 2.64 0 4 0 C3.75 1.875 3.75 1.875 3 4 C0.9375 5.25 0.9375 5.25 -1 6 C-0.67 4.02 -0.34 2.04 0 0 Z " fill="#E6E6E7" transform="translate(61,117)"/>
<path d="M0 0 C-0.33 0.66 -0.66 1.32 -1 2 C-7.93 1.505 -7.93 1.505 -15 1 C-15 0.67 -15 0.34 -15 0 C-13.25093341 -0.19601608 -11.50068154 -0.38147403 -9.75 -0.5625 C-8.77546875 -0.66691406 -7.8009375 -0.77132812 -6.796875 -0.87890625 C-4.2368648 -0.98974468 -2.41851841 -0.77738092 0 0 Z " fill="#505050" transform="translate(88,62)"/>
<path d="M0 0 C1.32 1.32 2.64 2.64 4 4 C2.68 5.32 1.36 6.64 0 8 C0 5.36 0 2.72 0 0 Z " fill="#F8F8FA" transform="translate(101,105)"/>
<path d="M0 0 C2.97 0.495 2.97 0.495 6 1 C6.33 2.32 6.66 3.64 7 5 C4.0625 4.1875 4.0625 4.1875 1 3 C0.67 2.01 0.34 1.02 0 0 Z " fill="#1E1E1E" transform="translate(38,81)"/>
<path d="M0 0 C2 1.375 2 1.375 4 3 C4 3.66 4 4.32 4 5 C1.69 4.67 -0.62 4.34 -3 4 C-2.01 2.68 -1.02 1.36 0 0 Z " fill="#F7F7F9" transform="translate(81,55)"/>
<path d="M0 0 C1.32 1.32 2.64 2.64 4 4 C1.69 4.33 -0.62 4.66 -3 5 C-1.125 1.125 -1.125 1.125 0 0 Z " fill="#F6F6F8" transform="translate(86,110)"/>
<path d="M0 0 C0 0.66 0 1.32 0 2 C-2.375 3.6875 -2.375 3.6875 -5 5 C-5.66 4.67 -6.32 4.34 -7 4 C-6.67 3.01 -6.34 2.02 -6 1 C-4 0 -4 0 0 0 Z " fill="#292929" transform="translate(81,83)"/>
<path d="M0 0 C0.66 0 1.32 0 2 0 C2.625 3.375 2.625 3.375 3 7 C2.34 7.66 1.68 8.32 1 9 C0.34 9 -0.32 9 -1 9 C-0.67 6.03 -0.34 3.06 0 0 Z " fill="#232323" transform="translate(88,64)"/>
<path d="M0 0 C-0.66 1.98 -1.32 3.96 -2 6 C-3.32 5.34 -4.64 4.68 -6 4 C-2.25 0 -2.25 0 0 0 Z " fill="#E0E0E2" transform="translate(89,67)"/>
<path d="M0 0 C1.4540625 0.0309375 1.4540625 0.0309375 2.9375 0.0625 C2.9375 0.7225 2.9375 1.3825 2.9375 2.0625 C2.174375 2.18625 1.41125 2.31 0.625 2.4375 C-2.26517136 2.94352792 -2.26517136 2.94352792 -5.0625 5.0625 C-3.9375 0.08035714 -3.9375 0.08035714 0 0 Z " fill="#E8E8E9" transform="translate(67.0625,109.9375)"/>
<path d="M0 0 C0.66 1.32 1.32 2.64 2 4 C0.02 4.99 0.02 4.99 -2 6 C-2 2 -2 2 0 0 Z " fill="#E9E9EB" transform="translate(100,94)"/>
<path d="M0 0 C0.99 0.33 1.98 0.66 3 1 C3 1.66 3 2.32 3 3 C2.38125 3.28875 1.7625 3.5775 1.125 3.875 C-1.13325765 4.93720042 -1.13325765 4.93720042 -3 7 C-2.25 2.25 -2.25 2.25 0 0 Z " fill="#252525" transform="translate(62,73)"/>
<path d="M0 0 C1.66611905 -0.042721 3.33382885 -0.04063832 5 0 C6 1 6 1 6.0625 3.5625 C6.041875 4.366875 6.02125 5.17125 6 6 C5.01 5.67 4.02 5.34 3 5 C3 3.68 3 2.36 3 1 C2.01 0.67 1.02 0.34 0 0 Z " fill="#232324" transform="translate(45,48)"/>
</svg>
