<?xml version="1.0" encoding="UTF-8"?>
<svg version="1.1" xmlns="http://www.w3.org/2000/svg" width="103" height="92">
<path d="M0 0 C33.99 0 67.98 0 103 0 C103 30.36 103 60.72 103 92 C69.01 92 35.02 92 0 92 C0 61.64 0 31.28 0 0 Z " fill="#FDFDFD" transform="translate(0,0)"/>
<path d="M0 0 C2.3125 1.5625 2.3125 1.5625 3.3125 2.5625 C6.00485776 2.79928716 8.67748156 2.98448025 11.375 3.125 C12.51291992 3.18977539 12.51291992 3.18977539 13.67382812 3.25585938 C15.55315438 3.36223633 17.43280244 3.46289934 19.3125 3.5625 C19.3125 4.2225 19.3125 4.8825 19.3125 5.5625 C21.2925 5.5625 23.2725 5.5625 25.3125 5.5625 C25.3125 6.2225 25.3125 6.8825 25.3125 7.5625 C26.3025 7.8925 27.2925 8.2225 28.3125 8.5625 C32.04057874 15.1264677 31.9837844 23.22874159 32.3125 30.5625 C33.7975 31.0575 33.7975 31.0575 35.3125 31.5625 C37.73707025 35.19935537 37.61018407 37.92482779 37.5625 42.125 C37.57410156 43.15270508 37.57410156 43.15270508 37.5859375 44.20117188 C37.5658867 49.3091133 37.5658867 49.3091133 35.3125 51.5625 C35.085625 52.325625 34.85875 53.08875 34.625 53.875 C32.77415759 57.66482018 29.91146716 59.47846557 26.3125 61.5625 C25.3225 61.8925 24.3325 62.2225 23.3125 62.5625 C22.54458327 64.50395526 22.54458327 64.50395526 22.0625 66.8125 C20.46578809 72.1661811 18.11508497 73.85558847 13.3125 76.5625 C12.6525 76.5625 11.9925 76.5625 11.3125 76.5625 C11.3125 77.2225 11.3125 77.8825 11.3125 78.5625 C6.6925 78.5625 2.0725 78.5625 -2.6875 78.5625 C-3.0175 77.5725 -3.3475 76.5825 -3.6875 75.5625 C-5.62368425 74.89093384 -5.62368425 74.89093384 -7.6875 74.5625 C-8.3475 74.2325 -9.0075 73.9025 -9.6875 73.5625 C-13.25698729 73.28384114 -16.82631679 73.11521521 -20.40234375 72.94140625 C-23.6875 72.5625 -23.6875 72.5625 -26.6875 70.5625 C-26.6875 69.9025 -26.6875 69.2425 -26.6875 68.5625 C-25.6975 68.63210937 -24.7075 68.70171875 -23.6875 68.7734375 C-14.75180061 69.3474775 -14.75180061 69.3474775 -6.875 65.5625 C-6.29105469 65.005625 -5.70710938 64.44875 -5.10546875 63.875 C-3.6875 62.5625 -3.6875 62.5625 -1.6875 62.5625 C-1.6875 61.9025 -1.6875 61.2425 -1.6875 60.5625 C0.96478812 59.48724806 3.59618454 58.46793849 6.3125 57.5625 C6.3125 55.5825 6.3125 53.6025 6.3125 51.5625 C4.40665804 51.76626178 4.40665804 51.76626178 2.3125 52.5625 C1.8690625 53.1915625 1.425625 53.820625 0.96875 54.46875 C-1.95651151 58.16672209 -6.25482195 59.30907705 -10.6875 60.5625 C-13.46383929 60.84770981 -15.8894315 60.76976433 -18.6875 60.5625 C-18.6875 59.9025 -18.6875 59.2425 -18.6875 58.5625 C-19.80125 58.376875 -19.80125 58.376875 -20.9375 58.1875 C-23.48891485 57.60763299 -25.4142573 56.82541261 -27.6875 55.5625 C-27.6875 54.5725 -27.6875 53.5825 -27.6875 52.5625 C-29.3375 52.2325 -30.9875 51.9025 -32.6875 51.5625 C-32.0275 54.8625 -31.3675 58.1625 -30.6875 61.5625 C-31.6775 62.0575 -31.6775 62.0575 -32.6875 62.5625 C-33.1825 63.5525 -33.1825 63.5525 -33.6875 64.5625 C-37.33861665 58.02091601 -36.98637594 51.92370371 -36.6875 44.5625 C-35.10329871 45.18529669 -33.52017469 45.81083401 -31.9375 46.4375 C-30.61492188 46.95957031 -30.61492188 46.95957031 -29.265625 47.4921875 C-22.90164914 50.13420172 -22.90164914 50.13420172 -21.6875 52.5625 C-18.65607348 54.51127419 -16.26502793 55.02115743 -12.6875 54.5625 C-10.87273997 53.16664215 -10.87273997 53.16664215 -9.6875 51.5625 C-11.1725 49.0875 -11.1725 49.0875 -12.6875 46.5625 C-11.02138095 46.519779 -9.35367115 46.52186168 -7.6875 46.5625 C-7.1925 47.0575 -7.1925 47.0575 -6.6875 47.5625 C-0.56358568 47.93654967 -0.56358568 47.93654967 5.3125 46.5625 C6.36226964 43.41319107 6.41381595 41.17435544 6.375 37.875 C6.36597656 36.88113281 6.35695312 35.88726562 6.34765625 34.86328125 C6.33605469 34.10402344 6.32445312 33.34476563 6.3125 32.5625 C1.47189723 29.50007784 -1.98040936 28.02838495 -7.6875 27.5625 C-6.6975 27.2325 -5.7075 26.9025 -4.6875 26.5625 C-4.1925 25.0775 -4.1925 25.0775 -3.6875 23.5625 C-3.0275 23.5625 -2.3675 23.5625 -1.6875 23.5625 C-1.6875 22.9025 -1.6875 22.2425 -1.6875 21.5625 C1.86727643 18.58514918 5.17738289 16.66384974 9.8125 16.25 C10.6375 16.353125 11.4625 16.45625 12.3125 16.5625 C12.8075 17.5525 12.8075 17.5525 13.3125 18.5625 C14.3025 18.8925 15.2925 19.2225 16.3125 19.5625 C16.3125 20.2225 16.3125 20.8825 16.3125 21.5625 C17.034375 21.52125 17.75625 21.48 18.5 21.4375 C21.51979369 21.57171305 23.58185729 22.31420619 26.3125 23.5625 C26.3125 21.9125 26.3125 20.2625 26.3125 18.5625 C25.6525 18.5625 24.9925 18.5625 24.3125 18.5625 C24.085625 17.634375 23.85875 16.70625 23.625 15.75 C22.04650572 11.9165139 20.99099357 11.3141636 17.3125 9.5625 C11.71772571 8.72667235 6.83327762 8.7477977 1.8125 11.4375 C0.9875 12.13875 0.1625 12.84 -0.6875 13.5625 C-4.53114488 15.96477805 -5.49448578 15.5625 -10.6875 15.5625 C-11.3475 19.8525 -12.0075 24.1425 -12.6875 28.5625 C-12.0275 28.5625 -11.3675 28.5625 -10.6875 28.5625 C-10.6875 29.2225 -10.6875 29.8825 -10.6875 30.5625 C-11.6775 31.0575 -11.6775 31.0575 -12.6875 31.5625 C-13.15751033 34.83805608 -13.15751033 34.83805608 -13.3125 38.625 C-13.38726562 39.91535156 -13.46203125 41.20570312 -13.5390625 42.53515625 C-13.58804688 43.53417969 -13.63703125 44.53320312 -13.6875 45.5625 C-18.48787537 45.81134889 -20.06121981 44.71163806 -23.6875 41.5625 C-24.6775 41.2325 -25.6675 40.9025 -26.6875 40.5625 C-27.0175 33.3025 -27.3475 26.0425 -27.6875 18.5625 C-29.0075 18.5625 -30.3275 18.5625 -31.6875 18.5625 C-30.42542344 15.06751876 -28.90257148 12.51592864 -26.6875 9.5625 C-26.378125 8.69625 -26.06875 7.83 -25.75 6.9375 C-24.6875 4.5625 -24.6875 4.5625 -22.5625 3.25 C-21.634375 2.9096875 -21.634375 2.9096875 -20.6875 2.5625 C-20.6875 1.9025 -20.6875 1.2425 -20.6875 0.5625 C-14.06907866 -2.48561698 -6.77585097 -2.64143343 0 0 Z " fill="#5A5A5A" transform="translate(57.6875,8.4375)"/>
<path d="M0 0 C4.1658824 0.03479854 7.10867014 0.25445633 10.625 2.5625 C13.375 5.375 13.375 5.375 13.8125 8.1875 C13.668125 8.909375 13.52375 9.63125 13.375 10.375 C14.035 10.375 14.695 10.375 15.375 10.375 C15.375 12.025 15.375 13.675 15.375 15.375 C10.375 14.375 10.375 14.375 5.375 13.375 C5.375 12.715 5.375 12.055 5.375 11.375 C4.055 11.045 2.735 10.715 1.375 10.375 C1.375 9.715 1.375 9.055 1.375 8.375 C-3.13196828 9.52383505 -6.69711703 10.90604499 -10.625 13.375 C-11.285 13.375 -11.945 13.375 -12.625 13.375 C-12.625 14.035 -12.625 14.695 -12.625 15.375 C-14.125 17 -14.125 17 -15.625 18.375 C-14.92632812 18.64054687 -14.22765625 18.90609375 -13.5078125 19.1796875 C-12.14269531 19.70949219 -12.14269531 19.70949219 -10.75 20.25 C-9.84507813 20.59804688 -8.94015625 20.94609375 -8.0078125 21.3046875 C-5.625 22.375 -5.625 22.375 -3.625 24.375 C-3.359375 26.87109375 -3.359375 26.87109375 -3.375 29.8125 C-3.36726563 31.26462891 -3.36726563 31.26462891 -3.359375 32.74609375 C-3.625 35.375 -3.625 35.375 -5.625 38.375 C-9.25581336 41.02828669 -13.32122262 40.6732816 -17.625 40.375 C-20.625 39.875 -20.625 39.875 -22.625 39.375 C-21.635 41.025 -20.645 42.675 -19.625 44.375 C-21.78657959 46.29640408 -23.17359169 47.30555257 -26.0625 47.75 C-29.19288987 47.29189417 -31.09671101 46.25315754 -33.625 44.375 C-33.625 43.715 -33.625 43.055 -33.625 42.375 C-34.46804687 42.19130859 -34.46804687 42.19130859 -35.328125 42.00390625 C-37.81486519 41.3230131 -40.03014776 40.38147675 -42.375 39.3125 C-43.17421875 38.95027344 -43.9734375 38.58804688 -44.796875 38.21484375 C-45.40015625 37.93769531 -46.0034375 37.66054688 -46.625 37.375 C-46.67923638 39.29135217 -46.71789963 41.20814925 -46.75 43.125 C-46.77320313 44.19234375 -46.79640625 45.2596875 -46.8203125 46.359375 C-46.62987687 49.29970106 -46.15170104 50.89861878 -44.625 53.375 C-43.635 53.375 -42.645 53.375 -41.625 53.375 C-41.955 52.83875 -42.285 52.3025 -42.625 51.75 C-43.85199204 48.8358939 -43.76733286 46.50632292 -43.625 43.375 C-41.975 43.705 -40.325 44.035 -38.625 44.375 C-38.295 45.365 -37.965 46.355 -37.625 47.375 C-35.7596755 48.39254868 -35.7596755 48.39254868 -33.5625 49.0625 C-32.46228516 49.43955078 -32.46228516 49.43955078 -31.33984375 49.82421875 C-30.77394531 50.00597656 -30.20804688 50.18773437 -29.625 50.375 C-29.625 51.035 -29.625 51.695 -29.625 52.375 C-22.85417655 51.42907614 -16.32615947 50.39010228 -10.625 46.375 C-9.965 45.385 -9.305 44.395 -8.625 43.375 C-7.305 43.375 -5.985 43.375 -4.625 43.375 C-4.375 46.1875 -4.375 46.1875 -4.625 49.375 C-6.375 51.25 -6.375 51.25 -8.625 52.375 C-9.945 52.375 -11.265 52.375 -12.625 52.375 C-12.625 53.035 -12.625 53.695 -12.625 54.375 C-14.55859375 55.84765625 -14.55859375 55.84765625 -17.0625 57.4375 C-19.9968143 59.21178892 -19.9968143 59.21178892 -22.625 61.375 C-24.39353292 61.47438863 -26.16618275 61.50469223 -27.9375 61.5 C-28.90300781 61.50257812 -29.86851563 61.50515625 -30.86328125 61.5078125 C-33.28643705 61.39128167 -35.31144969 61.06741648 -37.625 60.375 C-37.625 61.035 -37.625 61.695 -37.625 62.375 C-33.22013491 63.84328836 -28.78767176 63.71028239 -24.16796875 63.8984375 C-20.41775945 64.4028758 -17.8887769 65.50570052 -14.625 67.375 C-14.625 67.705 -14.625 68.035 -14.625 68.375 C-16.935 68.375 -19.245 68.375 -21.625 68.375 C-21.625 67.715 -21.625 67.055 -21.625 66.375 C-26.245 66.375 -30.865 66.375 -35.625 66.375 C-36.12 65.385 -36.12 65.385 -36.625 64.375 C-37.3675 63.941875 -38.11 63.50875 -38.875 63.0625 C-41.97587466 61.15969055 -44.23174617 59.11014723 -46.625 56.375 C-46.625 55.385 -46.625 54.395 -46.625 53.375 C-47.285 53.375 -47.945 53.375 -48.625 53.375 C-49.85229991 50.92040018 -49.83818808 49.05174463 -50 46.3125 C-50.29243008 42.60678766 -50.79222228 39.56406479 -52.1875 36.125 C-54.49743755 29.89722718 -54.22882512 22.9151318 -53.625 16.375 C-52.965 15.385 -52.305 14.395 -51.625 13.375 C-50.635 13.375 -49.645 13.375 -48.625 13.375 C-48.295 12.385 -47.965 11.395 -47.625 10.375 C-45.0625 9.1875 -45.0625 9.1875 -42.625 8.375 C-42.625 9.035 -42.625 9.695 -42.625 10.375 C-41.305 10.375 -39.985 10.375 -38.625 10.375 C-37.42470092 12.77559817 -37.51040257 14.26860649 -37.52734375 16.9453125 C-37.53056641 17.84121094 -37.53378906 18.73710938 -37.53710938 19.66015625 C-37.54548828 20.59730469 -37.55386719 21.53445312 -37.5625 22.5 C-37.56701172 23.44488281 -37.57152344 24.38976562 -37.57617188 25.36328125 C-37.58797643 27.70058387 -37.60444241 30.03776061 -37.625 32.375 C-36.69494141 32.57609375 -36.69494141 32.57609375 -35.74609375 32.78125 C-33.625 33.375 -33.625 33.375 -31.6875 34.875 C-29.35449834 36.79149146 -29.35449834 36.79149146 -24.625 37.375 C-24.625 32.755 -24.625 28.135 -24.625 23.375 C-23.635 23.045 -22.645 22.715 -21.625 22.375 C-21.625 21.715 -21.625 21.055 -21.625 20.375 C-22.285 20.375 -22.945 20.375 -23.625 20.375 C-23.67916188 18.77120659 -23.71786638 17.16688594 -23.75 15.5625 C-23.77320312 14.66917969 -23.79640625 13.77585937 -23.8203125 12.85546875 C-23.625 10.375 -23.625 10.375 -21.625 7.375 C-19.97216376 6.87914913 -18.31553891 6.39177225 -16.640625 5.9765625 C-10.42936297 4.12281375 -6.48989124 0.20935133 0 0 Z " fill="#4C4C4C" transform="translate(68.625,16.625)"/>
<path d="M0 0 C6 1 6 1 7.84521484 2.23852539 C9.40880242 4.62357494 9.41550364 6.34187446 9.4765625 9.18359375 C9.5075 10.19357422 9.5384375 11.20355469 9.5703125 12.24414062 C9.58835938 13.29794922 9.60640625 14.35175781 9.625 15.4375 C9.67612638 17.51962174 9.73067821 19.60166289 9.7890625 21.68359375 C9.80662598 22.60712646 9.82418945 23.53065918 9.84228516 24.48217773 C9.90716351 26.96637579 9.90716351 26.96637579 10.61474609 29.14086914 C11 31 11 31 9.375 34.0625 C7.05105632 36.9368514 5.31217387 38.43107554 2 40 C1.34 40 0.68 40 0 40 C0 40.66 0 41.32 0 42 C-4.62 42 -9.24 42 -14 42 C-14.33 41.01 -14.66 40.02 -15 39 C-16.93618425 38.32843384 -16.93618425 38.32843384 -19 38 C-19.66 37.67 -20.32 37.34 -21 37 C-24.56948729 36.72134114 -28.13881679 36.55271521 -31.71484375 36.37890625 C-35 36 -35 36 -38 34 C-38 33.34 -38 32.68 -38 32 C-37.01 32.06960937 -36.02 32.13921875 -35 32.2109375 C-26.06430061 32.7849775 -26.06430061 32.7849775 -18.1875 29 C-17.60355469 28.443125 -17.01960938 27.88625 -16.41796875 27.3125 C-15 26 -15 26 -13 26 C-13 25.34 -13 24.68 -13 24 C-10.34771188 22.92474806 -7.71631546 21.90543849 -5 21 C-5 19.02 -5 17.04 -5 15 C-6.90584196 15.20376178 -6.90584196 15.20376178 -9 16 C-9.43570313 16.62777344 -9.87140625 17.25554688 -10.3203125 17.90234375 C-12.3560248 20.44461701 -14.04037446 21.15973046 -17.0625 22.3125 C-17.94035156 22.65925781 -18.81820312 23.00601563 -19.72265625 23.36328125 C-22 24 -22 24 -24 23 C-22.78763672 22.29423828 -22.78763672 22.29423828 -21.55078125 21.57421875 C-20.48214844 20.95160156 -19.41351563 20.32898438 -18.3125 19.6875 C-17.25675781 19.07261719 -16.20101562 18.45773438 -15.11328125 17.82421875 C-13.15187088 16.67493564 -11.20837317 15.49395284 -9.29296875 14.26953125 C-7 13 -7 13 -4 13 C-4 16.3 -4 19.6 -4 23 C-2.68 23.33 -1.36 23.66 0 24 C0 16.08 0 8.16 0 0 Z " fill="#555555" transform="translate(69,45)"/>
<path d="M0 0 C0.495 0.99 0.495 0.99 1 2 C1.99 2.33 2.98 2.66 4 3 C4 3.66 4 4.32 4 5 C5.65 5 7.3 5 9 5 C9.495 6.485 9.495 6.485 10 8 C11.98 8.33 13.96 8.66 16 9 C16 6.36 16 3.72 16 1 C16.33 1 16.66 1 17 1 C17 4.96 17 8.92 17 13 C16.34 13 15.68 13 15 13 C15 12.34 15 11.68 15 11 C14.2575 11.04125 13.515 11.0825 12.75 11.125 C9.88051956 10.99456907 8.39424853 10.53915977 6 9 C5.505 8.01 5.505 8.01 5 7 C2.78225221 6.49173851 2.78225221 6.49173851 0.1875 6.3125 C-1.12154297 6.18294922 -1.12154297 6.18294922 -2.45703125 6.05078125 C-4.87044965 6.00258703 -6.70736498 6.2892297 -9 7 C-8.55966008 8.98020421 -8.55966008 8.98020421 -7 11 C-4.99339671 11.93953247 -2.98898877 12.62844101 -0.875 13.2890625 C1 14 1 14 3 16 C3.825 16.33 4.65 16.66 5.5 17 C8 18 8 18 10 20 C10.22705078 21.97119141 10.22705078 21.97119141 10.1953125 24.3515625 C10.18886719 25.20234375 10.18242188 26.053125 10.17578125 26.9296875 C10.15902344 27.81914063 10.14226562 28.70859375 10.125 29.625 C10.11597656 30.5221875 10.10695312 31.419375 10.09765625 32.34375 C10.07405132 34.56261322 10.03817962 36.7813397 10 39 C13.3 38.34 16.6 37.68 20 37 C19 42 19 42 17.00390625 43.546875 C16.19824219 43.94390625 15.39257812 44.3409375 14.5625 44.75 C13.75941406 45.15734375 12.95632812 45.5646875 12.12890625 45.984375 C11.42636719 46.31953125 10.72382812 46.6546875 10 47 C9.01 47.495 9.01 47.495 8 48 C7.99589111 47.2886792 7.99178223 46.5773584 7.98754883 45.84448242 C7.95467451 42.62464003 7.8840379 39.40670559 7.8125 36.1875 C7.80669922 35.06794922 7.80089844 33.94839844 7.79492188 32.79492188 C7.76591797 31.72177734 7.73691406 30.64863281 7.70703125 29.54296875 C7.6913208 28.55321045 7.67561035 27.56345215 7.65942383 26.54370117 C7.2255798 23.78747225 7.2255798 23.78747225 4.64331055 22.21606445 C1.98124495 20.93307381 1.98124495 20.93307381 -1 20 C-1 27.92 -1 35.84 -1 44 C-2.65 44 -4.3 44 -6 44 C-5.67 40.37 -5.34 36.74 -5 33 C-10.1247944 34.96268722 -14.38754763 37.45702703 -18.88671875 40.59765625 C-23.15777047 43.43186617 -25.80877021 44.23596499 -31 44 C-31 43.34 -31 42.68 -31 42 C-32.11375 41.814375 -32.11375 41.814375 -33.25 41.625 C-35.80141485 41.04513299 -37.7267573 40.26291261 -40 39 C-40 38.01 -40 37.02 -40 36 C-41.65 35.67 -43.3 35.34 -45 35 C-44.34 38.3 -43.68 41.6 -43 45 C-43.99 45.495 -43.99 45.495 -45 46 C-45.33 46.66 -45.66 47.32 -46 48 C-49.65111665 41.45841601 -49.29887594 35.36120371 -49 28 C-47.41579871 28.62279669 -45.83267469 29.24833401 -44.25 29.875 C-43.36828125 30.22304688 -42.4865625 30.57109375 -41.578125 30.9296875 C-35.21414914 33.57170172 -35.21414914 33.57170172 -34 36 C-30.96857348 37.94877419 -28.57752793 38.45865743 -25 38 C-23.18523997 36.60414215 -23.18523997 36.60414215 -22 35 C-22.99 33.35 -23.98 31.7 -25 30 C-23.33388095 29.957279 -21.66617115 29.95936168 -20 30 C-19.67 30.33 -19.34 30.66 -19 31 C-12.87608568 31.37404967 -12.87608568 31.37404967 -7 30 C-5.95023036 26.85069107 -5.89868405 24.61185544 -5.9375 21.3125 C-5.94652344 20.31863281 -5.95554688 19.32476562 -5.96484375 18.30078125 C-5.97644531 17.54152344 -5.98804688 16.78226563 -6 16 C-10.84060277 12.93757784 -14.29290936 11.46588495 -20 11 C-19.01 10.67 -18.02 10.34 -17 10 C-16.67 9.01 -16.34 8.02 -16 7 C-15.34 7 -14.68 7 -14 7 C-14 6.34 -14 5.68 -14 5 C-9.67712094 1.37931449 -5.74627325 -0.71828416 0 0 Z " fill="#323232" transform="translate(70,25)"/>
<path d="M0 0 C1.5159375 -0.00773438 1.5159375 -0.00773438 3.0625 -0.015625 C6.0703976 0.25636574 8.27306793 0.98678882 11 2.25 C10.34 2.91 9.68 3.57 9 4.25 C9.33 4.58 9.66 4.91 10 5.25 C10 6.9 10 8.55 10 10.25 C3.07 13.715 3.07 13.715 -4 17.25 C-4.33 25.83 -4.66 34.41 -5 43.25 C-6.98 43.25 -8.96 43.25 -11 43.25 C-11 42.26 -11 41.27 -11 40.25 C-11.639375 40.12625 -12.27875 40.0025 -12.9375 39.875 C-13.618125 39.66875 -14.29875 39.4625 -15 39.25 C-16.14654482 36.95691037 -16.19729117 35.45090344 -16.31640625 32.8984375 C-16.35830078 32.04765625 -16.40019531 31.196875 -16.44335938 30.3203125 C-16.48267578 29.43085937 -16.52199219 28.54140625 -16.5625 27.625 C-16.60568359 26.7278125 -16.64886719 25.830625 -16.69335938 24.90625 C-16.79956861 22.68765717 -16.90161194 20.4689512 -17 18.25 C-18.32 18.25 -19.64 18.25 -21 18.25 C-20.70867188 17.67507812 -20.41734375 17.10015625 -20.1171875 16.5078125 C-19.40942026 15.07742976 -18.72407529 13.63554582 -18.0703125 12.1796875 C-17.75835938 11.50164063 -17.44640625 10.82359375 -17.125 10.125 C-16.81820313 9.44179688 -16.51140625 8.75859375 -16.1953125 8.0546875 C-14.74979708 5.87224265 -13.3944139 5.22179142 -11 4.25 C-11 3.59 -11 2.93 -11 2.25 C-7.19471609 0.48725819 -4.1839474 -0.02134667 0 0 Z " fill="#494949" transform="translate(48,6.75)"/>
<path d="M0 0 C4.99079269 1.24769817 4.99079269 1.24769817 7 4 C7.37231445 6.26489258 7.37231445 6.26489258 7.36328125 8.89453125 C7.36263672 9.85037109 7.36199219 10.80621094 7.36132812 11.79101562 C7.34521484 12.78810547 7.32910156 13.78519531 7.3125 14.8125 C7.31733398 16.29073242 7.31733398 16.29073242 7.32226562 17.79882812 C7.23385699 29.76614301 7.23385699 29.76614301 2.625 34.375 C-2.57529031 36.70616462 -7.38717338 36.32696077 -13 36 C-13 32 -13 32 -11.9375 30.5 C-8.29216879 27.67780809 -4.38550944 25.46183648 0 24 C0 16.08 0 8.16 0 0 Z " fill="#E8E8E8" transform="translate(69,45)"/>
<path d="M0 0 C1.75 1.125 1.75 1.125 2.75 3.125 C4.76669827 4.25850534 4.76669827 4.25850534 6.75 5.125 C6.75 5.785 6.75 6.445 6.75 7.125 C8.35875 7.186875 8.35875 7.186875 10 7.25 C13.75 8.125 13.75 8.125 16.1875 10.3125 C19.1305562 15.56887548 18.71337935 22.37305861 17.75 28.125 C15.91265422 30.70176542 14.82097074 31.01945054 11.75 32.125 C11.09 32.125 10.43 32.125 9.75 32.125 C9.72421875 31.10019531 9.6984375 30.07539062 9.671875 29.01953125 C9.61556942 27.65881301 9.55822263 26.29813757 9.5 24.9375 C9.48582031 24.26396484 9.47164062 23.59042969 9.45703125 22.89648438 C9.2215344 18.06879888 8.18062856 15.51743974 4.75 12.125 C2.32616923 10.95546584 2.32616923 10.95546584 -0.25 10.125 C-1.91666667 9.125 -3.58333333 8.125 -5.25 7.125 C-6.1575 6.815625 -7.065 6.50625 -8 6.1875 C-10.25 5.125 -10.25 5.125 -11.0625 3 C-11.124375 2.38125 -11.18625 1.7625 -11.25 1.125 C-7.35941027 -1.18053465 -4.26517607 -1.65867958 0 0 Z " fill="#E4E4E4" transform="translate(72.25,30.875)"/>
<path d="M0 0 C0.06058594 1.20398438 0.12117188 2.40796875 0.18359375 3.6484375 C0.26799732 5.22397077 0.35264541 6.79949096 0.4375 8.375 C0.47681641 9.1690625 0.51613281 9.963125 0.55664062 10.78125 C0.68893404 15.02601221 0.68893404 15.02601221 2 19 C4.01669827 20.13350534 4.01669827 20.13350534 6 21 C6 21.66 6 22.32 6 23 C6.5775 23.144375 7.155 23.28875 7.75 23.4375 C10.875 24.21875 10.875 24.21875 14 25 C14 25.66 14 26.32 14 27 C14.78375 27.103125 15.5675 27.20625 16.375 27.3125 C19 28 19 28 21 31 C18.83842041 32.92140408 17.45140831 33.93055257 14.5625 34.375 C11.43211013 33.91689417 9.52828899 32.87815754 7 31 C7 30.34 7 29.68 7 29 C6.484375 28.896875 5.96875 28.79375 5.4375 28.6875 C0.7147016 27.35542866 -2.96022281 26.06643815 -6.4375 22.5 C-8.57517547 17.71160696 -8.72793237 13.18016988 -8 8 C-7.34 7.34 -6.68 6.68 -6 6 C-5.7834375 5.01 -5.7834375 5.01 -5.5625 4 C-4.72654183 1.02770427 -3.05882815 0 0 0 Z " fill="#E0E0E0" transform="translate(28,30)"/>
<path d="M0 0 C0.33 0.99 0.66 1.98 1 3 C-0.37285156 3.72316406 -0.37285156 3.72316406 -1.7734375 4.4609375 C-2.9740595 5.09876794 -4.1745748 5.73679926 -5.375 6.375 C-5.97828125 6.69210938 -6.5815625 7.00921875 -7.203125 7.3359375 C-9.78550382 8.7132062 -11.91830581 9.91830581 -14 12 C-14.37051993 14.3245339 -14.37051993 14.3245339 -14.4140625 17.0078125 C-14.45273437 17.99394531 -14.49140625 18.98007812 -14.53125 19.99609375 C-14.5621875 21.02863281 -14.593125 22.06117187 -14.625 23.125 C-14.66367187 24.16527344 -14.70234375 25.20554687 -14.7421875 26.27734375 C-14.83664766 28.85138311 -14.92221214 31.42541155 -15 34 C-16.99954746 34.04254356 -19.00041636 34.04080783 -21 34 C-23.54564254 31.45435746 -22.33151462 24.66557892 -22.375 21.25 C-22.41238281 20.15171875 -22.44976562 19.0534375 -22.48828125 17.921875 C-22.5773865 9.76379439 -22.5773865 9.76379439 -19.640625 5.87890625 C-18.76921875 5.25886719 -17.8978125 4.63882812 -17 4 C-16.13375 3.236875 -15.2675 2.47375 -14.375 1.6875 C-9.58624025 -0.70687988 -5.25694814 -0.33674401 0 0 Z " fill="#F1F1F1" transform="translate(55,13)"/>
<path d="M0 0 C4.1658824 0.03479854 7.10867014 0.25445633 10.625 2.5625 C13.375 5.375 13.375 5.375 13.8125 8.1875 C13.668125 8.909375 13.52375 9.63125 13.375 10.375 C14.035 10.375 14.695 10.375 15.375 10.375 C15.375 12.025 15.375 13.675 15.375 15.375 C12.00037285 14.82776317 10.29265 14.3201 7.375 12.375 C7.375 11.715 7.375 11.055 7.375 10.375 C3.05872482 7.93366788 -0.75161572 7.64737665 -5.625 8.375 C-8.95308239 10.25913915 -8.95308239 10.25913915 -11.625 12.375 C-12.615 12.375 -13.605 12.375 -14.625 12.375 C-14.955 13.365 -15.285 14.355 -15.625 15.375 C-16.615 15.375 -17.605 15.375 -18.625 15.375 C-18.625 16.035 -18.625 16.695 -18.625 17.375 C-19.945 17.375 -21.265 17.375 -22.625 17.375 C-23.125 14.75 -23.125 14.75 -22.625 11.375 C-18.25580412 6.73272938 -12.30308046 4.06461706 -6.625 1.375 C-4.84927719 -0.40072281 -2.40850971 0.07769386 0 0 Z " fill="#E5E5E5" transform="translate(68.625,16.625)"/>
<path d="M0 0 C1.32 0 2.64 0 4 0 C4.25 2.8125 4.25 2.8125 4 6 C2.25 7.875 2.25 7.875 0 9 C-1.32 9 -2.64 9 -4 9 C-4 9.66 -4 10.32 -4 11 C-8.32038893 15.11770401 -12.69275724 17.42791257 -18.6875 17.625 C-23.60358019 17.34191111 -26.42138671 16.38517473 -30 13 C-30 12.01 -30 11.02 -30 10 C-30.66 10 -31.32 10 -32 10 C-32.33 7.69 -32.66 5.38 -33 3 C-30.15449988 3.66010476 -27.47674001 4.51724966 -24.75 5.5625 C-24.04359375 5.83191406 -23.3371875 6.10132812 -22.609375 6.37890625 C-22.07828125 6.58386719 -21.5471875 6.78882812 -21 7 C-21 7.66 -21 8.32 -21 9 C-14.22917655 8.05407614 -7.70115947 7.01510228 -2 3 C-1.34 2.01 -0.68 1.02 0 0 Z " fill="#E8E8E8" transform="translate(60,60)"/>
<path d="M0 0 C0.8353125 0.495 0.8353125 0.495 1.6875 1 C1.6875 1.66 1.6875 2.32 1.6875 3 C2.3475 3 3.0075 3 3.6875 3 C3.6875 6.3 3.6875 9.6 3.6875 13 C3.0275 13 2.3675 13 1.6875 13 C1.6875 13.66 1.6875 14.32 1.6875 15 C-1.73963219 17.10900443 -4.32121074 17.47895471 -8.3125 17 C-11.6875 15.625 -11.6875 15.625 -14.3125 13 C-14.82242108 9.61114949 -14.66288613 6.40004314 -14.3125 3 C-13.6525 3 -12.9925 3 -12.3125 3 C-12.3125 2.34 -12.3125 1.68 -12.3125 1 C-7.92533279 -1.00556215 -4.55581453 -1.97008196 0 0 Z " fill="#F3F3F3" transform="translate(60.3125,39)"/>
<path d="M0 0 C2.64 0 5.28 0 8 0 C8.495 0.99 8.495 0.99 9 2 C11.71446979 2.31241455 14.33909361 2.51336592 17.0625 2.625 C18.20041992 2.68300781 18.20041992 2.68300781 19.36132812 2.7421875 C21.24047195 2.83673562 23.12020336 2.91946756 25 3 C25.495 4.485 25.495 4.485 26 6 C24.94039062 6.04898437 23.88078125 6.09796875 22.7890625 6.1484375 C21.40101503 6.22346709 20.01299549 6.29901485 18.625 6.375 C17.57699219 6.42140625 17.57699219 6.42140625 16.5078125 6.46875 C12.29814173 6.59499498 12.29814173 6.59499498 9 9 C8.01 9 7.02 9 6 9 C6 9.99 6 10.98 6 12 C2.22639456 14.32221873 0.98800589 14 -4 14 C-4.66 18.29 -5.32 22.58 -6 27 C-5.34 27 -4.68 27 -4 27 C-4 27.66 -4 28.32 -4 29 C-4.66 29.33 -5.32 29.66 -6 30 C-6.47001033 33.27555608 -6.47001033 33.27555608 -6.625 37.0625 C-6.69976562 38.35285156 -6.77453125 39.64320312 -6.8515625 40.97265625 C-6.90054688 41.97167969 -6.94953125 42.97070312 -7 44 C-11.80037537 44.24884889 -13.37371981 43.14913806 -17 40 C-17.99 39.67 -18.98 39.34 -20 39 C-20.33 31.74 -20.66 24.48 -21 17 C-22.32 17 -23.64 17 -25 17 C-25 16.34 -25 15.68 -25 15 C-23.02 14.67 -21.04 14.34 -19 14 C-18.97494385 14.59538574 -18.9498877 15.19077148 -18.92407227 15.80419922 C-18.80822506 18.49469136 -18.68544804 21.1848234 -18.5625 23.875 C-18.52318359 24.81214844 -18.48386719 25.74929687 -18.44335938 26.71484375 C-18.40146484 27.61074219 -18.35957031 28.50664063 -18.31640625 29.4296875 C-18.27974854 30.25710449 -18.24309082 31.08452148 -18.20532227 31.93701172 C-18.11761673 34.06179429 -18.11761673 34.06179429 -17 36 C-16.01 36.33 -15.02 36.66 -14 37 C-14 37.99 -14 38.98 -14 40 C-12.02 40 -10.04 40 -8 40 C-8.04713135 38.84999512 -8.04713135 38.84999512 -8.09521484 37.67675781 C-8.21997138 34.20147232 -8.29798544 30.72665729 -8.375 27.25 C-8.42527344 26.0434375 -8.47554687 24.836875 -8.52734375 23.59375 C-8.58228928 20.29701838 -8.56044799 17.25002354 -8 14 C-5.28125 11.28125 -5.28125 11.28125 -2 10 C-1.15695313 9.65453125 -0.31390625 9.3090625 0.5546875 8.953125 C1.32039063 8.72109375 2.08609375 8.4890625 2.875 8.25 C3.65617187 8.00765625 4.43734375 7.7653125 5.2421875 7.515625 C5.82226562 7.34546875 6.40234375 7.1753125 7 7 C6.67 5.35 6.34 3.7 6 2 C3.03 1.505 3.03 1.505 0 1 C0 0.67 0 0.34 0 0 Z " fill="#1F1F1F" transform="translate(51,10)"/>
<path d="M0 0 C1.32 0.33 2.64 0.66 4 1 C3.0409375 1.556875 3.0409375 1.556875 2.0625 2.125 C-0.63858072 4.58052793 -0.68407005 6.44578805 -1 10 C0.32 10 1.64 10 3 10 C3 9.34 3 8.68 3 8 C3.99 7.67 4.98 7.34 6 7 C6.33 6.34 6.66 5.68 7 5 C12.05946148 1.27316453 16.72684073 -0.74285387 23.046875 -0.3671875 C25.6823447 0.1282808 27.22461263 0.99304036 29 3 C29 3.66 29 4.32 29 5 C29.66 5.33 30.32 5.66 31 6 C29.68 6 28.36 6 27 6 C27 5.34 27 4.68 27 4 C25.68 3.67 24.36 3.34 23 3 C23 2.34 23 1.68 23 1 C18.49303172 2.14883505 14.92788297 3.53104499 11 6 C10.34 6 9.68 6 9 6 C9 6.66 9 7.32 9 8 C7.5 9.625 7.5 9.625 6 11 C6.69867188 11.26554687 7.39734375 11.53109375 8.1171875 11.8046875 C9.02726562 12.15789063 9.93734375 12.51109375 10.875 12.875 C11.77992187 13.22304688 12.68484375 13.57109375 13.6171875 13.9296875 C16 15 16 15 18 17 C18.265625 19.49609375 18.265625 19.49609375 18.25 22.4375 C18.25515625 23.40558594 18.2603125 24.37367187 18.265625 25.37109375 C18 28 18 28 16 31 C12.37361442 33.650051 8.30069853 33.30903223 4 33 C2.63875 32.7215625 2.63875 32.7215625 1.25 32.4375 C-1.19455924 31.96216904 -2.66054878 32.22018293 -5 33 C-5 32.34 -5 31.68 -5 31 C-5.763125 30.87625 -6.52625 30.7525 -7.3125 30.625 C-10 30 -10 30 -13 28 C-12.278125 28.144375 -11.55625 28.28875 -10.8125 28.4375 C-9.884375 28.623125 -8.95625 28.80875 -8 29 C-6.35 29.33 -4.7 29.66 -3 30 C-3 25.38 -3 20.76 -3 16 C-2.01 15.67 -1.02 15.34 0 15 C0 14.34 0 13.68 0 13 C-0.66 13 -1.32 13 -2 13 C-2.05416188 11.39620659 -2.09286638 9.79188594 -2.125 8.1875 C-2.14820313 7.29417969 -2.17140625 6.40085937 -2.1953125 5.48046875 C-2 3 -2 3 0 0 Z M1 16 C1 16.66 1 17.32 1 18 C0.34 18 -0.32 18 -1 18 C-1.35038613 21.40004314 -1.50992108 24.61114949 -1 28 C2.02019093 31.02019093 3.90863964 31.86903676 8.125 32.375 C10.88654361 32.01479866 12.64575553 31.44876583 15 30 C15 29.34 15 28.68 15 28 C15.66 28 16.32 28 17 28 C17 24.7 17 21.4 17 18 C16.34 18 15.68 18 15 18 C15 17.34 15 16.68 15 16 C9.95187163 13.00851652 6.21001814 13.61827742 1 16 Z " fill="#606060" transform="translate(47,24)"/>
<path d="M0 0 C9.71428571 3.71428571 9.71428571 3.71428571 13 7 C13.22705078 8.97119141 13.22705078 8.97119141 13.1953125 11.3515625 C13.18564453 12.62773438 13.18564453 12.62773438 13.17578125 13.9296875 C13.15902344 14.81914063 13.14226562 15.70859375 13.125 16.625 C13.11597656 17.5221875 13.10695313 18.419375 13.09765625 19.34375 C13.07405132 21.56261322 13.03817962 23.7813397 13 26 C16.3 25.34 19.6 24.68 23 24 C22 29 22 29 20.00390625 30.546875 C19.19824219 30.94390625 18.39257812 31.3409375 17.5625 31.75 C16.75941406 32.15734375 15.95632812 32.5646875 15.12890625 32.984375 C14.42636719 33.31953125 13.72382812 33.6546875 13 34 C12.01 34.495 12.01 34.495 11 35 C10.99589111 34.2886792 10.99178223 33.5773584 10.98754883 32.84448242 C10.95467451 29.62464003 10.8840379 26.40670559 10.8125 23.1875 C10.80669922 22.06794922 10.80089844 20.94839844 10.79492188 19.79492188 C10.76591797 18.72177734 10.73691406 17.64863281 10.70703125 16.54296875 C10.6913208 15.55321045 10.67561035 14.56345215 10.65942383 13.54370117 C10.2255798 10.78747225 10.2255798 10.78747225 7.64331055 9.21606445 C4.98124495 7.93307381 4.98124495 7.93307381 2 7 C2 14.92 2 22.84 2 31 C1.34 31 0.68 31 0 31 C0 22.75 0 14.5 0 6 C1.65 5.67 3.3 5.34 5 5 C3.7625 4.319375 3.7625 4.319375 2.5 3.625 C1.675 3.08875 0.85 2.5525 0 2 C0 1.34 0 0.68 0 0 Z " fill="#404040" transform="translate(67,38)"/>
<path d="M0 0 C1.92578125 1.0859375 1.92578125 1.0859375 4 3 C4.79296875 6.1015625 4.79296875 6.1015625 5.1875 9.625 C5.32201449 13.63420216 5.32201449 13.63420216 7 17 C7.99 17 8.98 17 10 17 C9.67 16.46375 9.34 15.9275 9 15.375 C7.77300796 12.4608939 7.85766714 10.13132292 8 7 C9.65 7.33 11.3 7.66 13 8 C13 8.66 13 9.32 13 10 C12.01 10 11.02 10 10 10 C10.33 12.31 10.66 14.62 11 17 C11.66 17 12.32 17 13 17 C13.33 17.99 13.66 18.98 14 20 C18.42671246 23.71272658 23.46735865 23.68845321 29 24 C29 24.33 29 24.66 29 25 C27.25008666 25.02715383 25.50005055 25.04646551 23.75 25.0625 C22.28820313 25.07990234 22.28820313 25.07990234 20.796875 25.09765625 C18.34241322 25.01195577 16.33831086 24.70706066 14 24 C14 24.66 14 25.32 14 26 C18.40486509 27.46828836 22.83732824 27.33528239 27.45703125 27.5234375 C31.20724055 28.0278758 33.7362231 29.13070052 37 31 C37 31.33 37 31.66 37 32 C34.69 32 32.38 32 30 32 C30 31.34 30 30.68 30 30 C25.38 30 20.76 30 16 30 C15.67 29.34 15.34 28.68 15 28 C14.2575 27.566875 13.515 27.13375 12.75 26.6875 C9.64912534 24.78469055 7.39325383 22.73514723 5 20 C5 19.01 5 18.02 5 17 C4.34 17 3.68 17 3 17 C1.74326584 14.48653169 1.71024161 12.42571862 1.5 9.625 C1.24915301 6.30127744 0.91275806 3.20986584 0 0 Z " fill="#494949" transform="translate(17,53)"/>
<path d="M0 0 C1.58420129 0.62279669 3.16732531 1.24833401 4.75 1.875 C6.07257812 2.39707031 6.07257812 2.39707031 7.421875 2.9296875 C13.78585086 5.57170172 13.78585086 5.57170172 15 8 C18.06227902 9.96860794 20.39726505 10.27713346 24 10 C24.99 9.67 25.98 9.34 27 9 C27 9.99 27 10.98 27 12 C26.01 12.33 25.02 12.66 24 13 C24 13.99 24 14.98 24 16 C22.02 16 20.04 16 18 16 C18 15.34 18 14.68 18 14 C17.2575 13.87625 16.515 13.7525 15.75 13.625 C13.19858515 13.04513299 11.2732427 12.26291261 9 11 C9 10.01 9 9.02 9 8 C7.35 7.67 5.7 7.34 4 7 C4.66 10.3 5.32 13.6 6 17 C5.34 17.33 4.68 17.66 4 18 C3.67 18.66 3.34 19.32 3 20 C-0.65111665 13.45841601 -0.29887594 7.36120371 0 0 Z " fill="#303030" transform="translate(21,53)"/>
<path d="M0 0 C0.69738281 0.00902344 1.39476562 0.01804687 2.11328125 0.02734375 C3.82566958 0.05080112 5.53788004 0.08666896 7.25 0.125 C7.58 1.775 7.91 3.425 8.25 5.125 C7.32316406 5.32867188 6.39632812 5.53234375 5.44140625 5.7421875 C-0.4750647 7.76904511 -0.4750647 7.76904511 -4.75 12.125 C-6.82848558 20.51997767 -6.18149896 29.54930318 -5.75 38.125 C-7.73 38.125 -9.71 38.125 -11.75 38.125 C-11.75 37.135 -11.75 36.145 -11.75 35.125 C-10.76 35.125 -9.77 35.125 -8.75 35.125 C-8.77094727 34.47950195 -8.79189453 33.83400391 -8.81347656 33.16894531 C-8.89674205 30.23778932 -8.94869206 27.30688223 -9 24.375 C-9.03351562 23.35921875 -9.06703125 22.3434375 -9.1015625 21.296875 C-9.20003727 13.8127928 -9.20003727 13.8127928 -7.09375 10.59375 C-4.45912865 8.94272062 -1.85917143 7.60035918 1 6.375 C1.98484375 5.94703125 2.9696875 5.5190625 3.984375 5.078125 C4.73203125 4.76359375 5.4796875 4.4490625 6.25 4.125 C6.25 3.135 6.25 2.145 6.25 1.125 C-1.65446304 1.28752167 -7.15950978 2.71506704 -13.75 7.125 C-13.75 6.465 -13.75 5.805 -13.75 5.125 C-13.09 5.125 -12.43 5.125 -11.75 5.125 C-11.75 4.135 -11.75 3.145 -11.75 2.125 C-8.00764681 -0.32489101 -4.30774581 -0.10586143 0 0 Z " fill="#5B5B5B" transform="translate(48.75,11.875)"/>
<path d="M0 0 C-0.99 1.65 -1.98 3.3 -3 5 C-2.01 5.33 -1.02 5.66 0 6 C0 6.66 0 7.32 0 8 C4.62 8 9.24 8 14 8 C13.34 8.33 12.68 8.66 12 9 C12 9.66 12 10.32 12 11 C1.5445303 11.69190608 1.5445303 11.69190608 -2.8125 9.0625 C-7.56796478 6.23894279 -12.51058434 6.42564844 -17.92578125 6.2734375 C-21 6 -21 6 -24 4 C-24 3.34 -24 2.68 -24 2 C-22.96359375 2.02320312 -21.9271875 2.04640625 -20.859375 2.0703125 C-19.48959056 2.08907667 -18.1197983 2.10727618 -16.75 2.125 C-15.72712891 2.15013672 -15.72712891 2.15013672 -14.68359375 2.17578125 C-9.24502561 2.22858288 -5.32348506 -0.29574917 0 0 Z " fill="#252525" transform="translate(55,75)"/>
<path d="M0 0 C3.875 1.875 3.875 1.875 5 3 C5.14542134 4.65904005 5.22719862 6.32375738 5.28125 7.98828125 C5.31863281 9.00470703 5.35601562 10.02113281 5.39453125 11.06835938 C5.42933594 12.13892578 5.46414062 13.20949219 5.5 14.3125 C5.56903296 16.41289166 5.64180321 18.51316462 5.71875 20.61328125 C5.74904297 21.54954346 5.77933594 22.48580566 5.81054688 23.45043945 C5.90868595 25.96002669 5.90868595 25.96002669 6.61914062 28.13354492 C7 30 7 30 5.375 33.25 C3 36 3 36 0.25 36.375 C-0.86375 36.189375 -0.86375 36.189375 -2 36 C-1.625 33.5625 -1.625 33.5625 -1 31 C-0.34 30.67 0.32 30.34 1 30 C2.45116706 24.71537653 2.1839745 19.31132725 2.1875 13.875 C2.19974609 12.87339844 2.21199219 11.87179688 2.22460938 10.83984375 C2.22654297 9.87949219 2.22847656 8.91914062 2.23046875 7.9296875 C2.23457764 7.05554199 2.23868652 6.18139648 2.24291992 5.28076172 C2.14840558 2.72052816 2.14840558 2.72052816 0 0 Z " fill="#4F4F4F" transform="translate(73,46)"/>
<path d="M0 0 C0.33 0.66 0.66 1.32 1 2 C1.99 2.33 2.98 2.66 4 3 C4 3.66 4 4.32 4 5 C5.65 5 7.3 5 9 5 C9.33 5.99 9.66 6.98 10 8 C12.97 8.495 12.97 8.495 16 9 C16 6.36 16 3.72 16 1 C16.33 1 16.66 1 17 1 C17 4.96 17 8.92 17 13 C16.34 13 15.68 13 15 13 C15 12.34 15 11.68 15 11 C14.2575 11.04125 13.515 11.0825 12.75 11.125 C9.88051956 10.99456907 8.39424853 10.53915977 6 9 C5.67 8.34 5.34 7.68 5 7 C2.97536745 6.34786708 2.97536745 6.34786708 1 6 C1 5.34 1 4.68 1 4 C-1.97 4 -4.94 4 -8 4 C-8 4.66 -8 5.32 -8 6 C-8.66 6 -9.32 6 -10 6 C-10 3 -10 3 -8.375 1.3125 C-5.41801336 -0.32162419 -3.32820054 -0.22692276 0 0 Z " fill="#1A1A1A" transform="translate(70,25)"/>
<path d="M0 0 C1.4540625 0.0309375 1.4540625 0.0309375 2.9375 0.0625 C1.9475 0.3925 0.9575 0.7225 -0.0625 1.0625 C-0.0625 1.7225 -0.0625 2.3825 -0.0625 3.0625 C-0.7225 3.0625 -1.3825 3.0625 -2.0625 3.0625 C-2.15821032 9.77021205 -2.15821032 9.77021205 1.125 15.1875 C5.59865171 16.57930275 9.47847419 16.43450794 13.9375 15.0625 C13.9375 14.4025 13.9375 13.7425 13.9375 13.0625 C14.5975 13.3925 15.2575 13.7225 15.9375 14.0625 C14.60447708 16.72854583 13.74759519 17.05374788 10.9375 18.0625 C7.13631305 18.2435089 3.90311475 18.26001211 0.1875 17.5 C-2.25705924 17.02466904 -3.72304878 17.28268293 -6.0625 18.0625 C-6.0625 17.4025 -6.0625 16.7425 -6.0625 16.0625 C-6.825625 15.93875 -7.58875 15.815 -8.375 15.6875 C-11.0625 15.0625 -11.0625 15.0625 -14.0625 13.0625 C-13.340625 13.206875 -12.61875 13.35125 -11.875 13.5 C-10.4828125 13.7784375 -10.4828125 13.7784375 -9.0625 14.0625 C-8.17949219 14.23910156 -7.29648437 14.41570313 -6.38671875 14.59765625 C-5.61972656 14.75105469 -4.85273437 14.90445313 -4.0625 15.0625 C-4.07410156 14.06347656 -4.08570313 13.06445312 -4.09765625 12.03515625 C-4.10667969 10.74480469 -4.11570312 9.45445313 -4.125 8.125 C-4.13660156 6.83722656 -4.14820313 5.54945312 -4.16015625 4.22265625 C-4.03220921 0.08228998 -4.03220921 0.08228998 0 0 Z " fill="#676767" transform="translate(48.0625,38.9375)"/>
<path d="M0 0 C0.66 0.33 1.32 0.66 2 1 C4.71262116 1.2322646 7.40773126 1.41936235 10.125 1.5625 C11.25615234 1.62727539 11.25615234 1.62727539 12.41015625 1.69335938 C14.27321888 1.7994832 16.13658524 1.90025001 18 2 C18 2.66 18 3.32 18 4 C19.98 4 21.96 4 24 4 C24 4.66 24 5.32 24 6 C24.99 6.33 25.98 6.66 27 7 C28.1875 10.0625 28.1875 10.0625 29 13 C27.53515625 11.73046875 26.0703125 10.4609375 24.60546875 9.19140625 C22.89287029 7.79128769 22.89287029 7.79128769 20 7 C20 7.99 20 8.98 20 10 C19.46246094 9.67644531 18.92492187 9.35289063 18.37109375 9.01953125 C15.46735051 7.77096949 13.21721659 7.69943462 10.0625 7.6875 C9.04285156 7.67074219 8.02320312 7.65398438 6.97265625 7.63671875 C3.63129895 8.04505808 1.73659348 9.08992831 -1 11 C-1.33 10.34 -1.66 9.68 -2 9 C2.11995116 6.06167919 5.29796039 5.54682428 10.3125 5.3125 C11.56675781 5.24675781 12.82101563 5.18101563 14.11328125 5.11328125 C15.06589844 5.07589844 16.01851562 5.03851562 17 5 C17 4.34 17 3.68 17 3 C11.72 3 6.44 3 1 3 C0.67 2.01 0.34 1.02 0 0 Z " fill="#4F4F4F" transform="translate(59,10)"/>
<path d="M0 0 C1.65 0 3.3 0 5 0 C4.42655063 2.86724686 4.1385485 3.8614515 2 6 C1.01 6 0.02 6 -1 6 C-1.33 6.99 -1.66 7.98 -2 9 C-2.99 9 -3.98 9 -5 9 C-5 9.66 -5 10.32 -5 11 C-6.32 11 -7.64 11 -9 11 C-9.25 8.1875 -9.25 8.1875 -9 5 C-6.7793949 2.532661 -5.56430797 2.03847554 -2.25 1.8125 C-1.13625 1.9053125 -1.13625 1.9053125 0 2 C0 1.34 0 0.68 0 0 Z " fill="#F6F6F6" transform="translate(55,23)"/>
<path d="M0 0 C0.66 0 1.32 0 2 0 C2.33 6.27 2.66 12.54 3 19 C6.96 17.515 6.96 17.515 11 16 C11.66 16 12.32 16 13 16 C12.77734375 18.328125 12.77734375 18.328125 12 21 C10.00390625 22.546875 10.00390625 22.546875 7.5625 23.75 C6.75941406 24.15734375 5.95632812 24.5646875 5.12890625 24.984375 C4.42636719 25.31953125 3.72382812 25.6546875 3 26 C2.34 26.33 1.68 26.66 1 27 C0.67 18.09 0.34 9.18 0 0 Z " fill="#303030" transform="translate(77,46)"/>
<path d="M0 0 C4.43843439 1.39493652 6.9434964 3.51898201 10 7 C11.04976964 10.14930893 11.10131595 12.38814456 11.0625 15.6875 C11.05347656 16.68136719 11.04445313 17.67523438 11.03515625 18.69921875 C11.02355469 19.45847656 11.01195313 20.21773437 11 21 C10.67 21 10.34 21 10 21 C9.67 17.7 9.34 14.4 9 11 C8.67 13.31 8.34 15.62 8 18 C6.02 17.67 4.04 17.34 2 17 C3.32 16.67 4.64 16.34 6 16 C6 14.35 6 12.7 6 11 C5.34 11 4.68 11 4 11 C3.566875 9.576875 3.566875 9.576875 3.125 8.125 C2.23174891 4.94788422 2.23174891 4.94788422 0 3 C0 2.01 0 1.02 0 0 Z " fill="#494949" transform="translate(78,16)"/>
<path d="M0 0 C0.66 0.33 1.32 0.66 2 1 C1.67 1.33 1.34 1.66 1 2 C0.84174742 3.99782126 0.74880829 6.00088834 0.68359375 8.00390625 C0.64169922 9.21884766 0.59980469 10.43378906 0.55664062 11.68554688 C0.51732422 12.96494141 0.47800781 14.24433594 0.4375 15.5625 C0.39431641 16.84576172 0.35113281 18.12902344 0.30664062 19.45117188 C0.200152 22.63399853 0.09814038 25.81690674 0 29 C-0.99 28.67 -1.98 28.34 -3 28 C-3.08714316 24.08347368 -3.14043985 20.16719689 -3.1875 16.25 C-3.21263672 15.13882813 -3.23777344 14.02765625 -3.26367188 12.8828125 C-3.27333984 11.81289063 -3.28300781 10.74296875 -3.29296875 9.640625 C-3.3086792 8.65610352 -3.32438965 7.67158203 -3.34057617 6.65722656 C-2.94965182 3.60717591 -2.03157056 2.25886277 0 0 Z " fill="#B9B9B9" transform="translate(36,18)"/>
<path d="M0 0 C2.64 0 5.28 0 8 0 C8.33 0.66 8.66 1.32 9 2 C11.71446979 2.31241455 14.33909361 2.51336592 17.0625 2.625 C18.20041992 2.68300781 18.20041992 2.68300781 19.36132812 2.7421875 C21.24047195 2.83673562 23.12020336 2.91946756 25 3 C25.33 3.99 25.66 4.98 26 6 C24.94039062 6.04898437 23.88078125 6.09796875 22.7890625 6.1484375 C21.40101503 6.22346709 20.01299549 6.29901485 18.625 6.375 C17.57699219 6.42140625 17.57699219 6.42140625 16.5078125 6.46875 C12.29814173 6.59499498 12.29814173 6.59499498 9 9 C7.68 9 6.36 9 5 9 C5 8.34 5 7.68 5 7 C5.66 7 6.32 7 7 7 C6.67 5.35 6.34 3.7 6 2 C3.03 1.505 3.03 1.505 0 1 C0 0.67 0 0.34 0 0 Z " fill="#0F0F0F" transform="translate(51,10)"/>
<path d="M0 0 C0.66 0.33 1.32 0.66 2 1 C2 1.66 2 2.32 2 3 C3.93742341 3.02703381 5.87495479 3.04641125 7.8125 3.0625 C9.43091797 3.07990234 9.43091797 3.07990234 11.08203125 3.09765625 C14.06512169 3.13624766 14.06512169 3.13624766 17 2 C17 2.99 17 3.98 17 5 C17.99 5.33 18.98 5.66 20 6 C18.35 6.66 16.7 7.32 15 8 C15 8.66 15 9.32 15 10 C10.38 10 5.76 10 1 10 C0.67 9.34 0.34 8.68 0 8 C4.29 8.33 8.58 8.66 13 9 C13 8.34 13 7.68 13 7 C9.04 6.67 5.08 6.34 1 6 C0.34 4.35 -0.32 2.7 -1 1 C-0.67 0.67 -0.34 0.34 0 0 Z " fill="#707070" transform="translate(54,77)"/>
<path d="M0 0 C1.32 0.33 2.64 0.66 4 1 C4.33 1.66 4.66 2.32 5 3 C4.01 3 3.02 3 2 3 C2 10.26 2 17.52 2 25 C0.02 25.99 -1.96 26.98 -4 28 C-4.66 27.67 -5.32 27.34 -6 27 C-2.25 24 -2.25 24 0 24 C0 16.08 0 8.16 0 0 Z " fill="#ADADAD" transform="translate(69,45)"/>
<path d="M0 0 C0.69738281 0.00902344 1.39476562 0.01804687 2.11328125 0.02734375 C3.82566958 0.05080112 5.53788004 0.08666896 7.25 0.125 C7.58 1.775 7.91 3.425 8.25 5.125 C6.14983377 6.29941535 4.04541245 7.46464012 1.9375 8.625 C1.34259766 8.95886719 0.74769531 9.29273438 0.13476562 9.63671875 C-2.70828844 11.19325114 -4.45660988 12.125 -7.75 12.125 C-5.24941082 9.21475798 -2.55344623 7.95708836 0.9375 6.4375 C1.93136719 6.00050781 2.92523438 5.56351563 3.94921875 5.11328125 C4.70847656 4.78714844 5.46773437 4.46101563 6.25 4.125 C6.25 3.135 6.25 2.145 6.25 1.125 C-1.65446304 1.28752167 -7.15950978 2.71506704 -13.75 7.125 C-13.75 6.465 -13.75 5.805 -13.75 5.125 C-13.09 5.125 -12.43 5.125 -11.75 5.125 C-11.75 4.135 -11.75 3.145 -11.75 2.125 C-8.00764681 -0.32489101 -4.30774581 -0.10586143 0 0 Z " fill="#919191" transform="translate(48.75,11.875)"/>
<path d="M0 0 C0 0.99 0 1.98 0 3 C-3.77360544 5.32221873 -5.01199411 5 -10 5 C-10.66 8.96 -11.32 12.92 -12 17 C-12.33 17 -12.66 17 -13 17 C-13.33 13.04 -13.66 9.08 -14 5 C-4.375 -1.5625 -4.375 -1.5625 0 0 Z " fill="#313131" transform="translate(57,19)"/>
<path d="M0 0 C6.27 0 12.54 0 19 0 C19 0.66 19 1.32 19 2 C21.475 2.495 21.475 2.495 24 3 C24 3.66 24 4.32 24 5 C28.95 5 33.9 5 39 5 C39.495 6.485 39.495 6.485 40 8 C39.34 8 38.68 8 38 8 C38 7.34 38 6.68 38 6 C36.90300781 6.03480469 35.80601563 6.06960937 34.67578125 6.10546875 C33.22136955 6.13361865 31.7669412 6.16091752 30.3125 6.1875 C29.2306543 6.22520508 29.2306543 6.22520508 28.12695312 6.26367188 C23.49265591 6.3271554 20.73238505 5.74908509 17 3 C14.28344597 1.64172299 12.09210594 1.8676555 9.0625 1.875 C8.00160156 1.87242187 6.94070312 1.86984375 5.84765625 1.8671875 C2.92426943 1.87430654 2.92426943 1.87430654 0 3 C0 2.01 0 1.02 0 0 Z " fill="#B8B8B8" transform="translate(39,6)"/>
<path d="M0 0 C0.99 0.495 0.99 0.495 2 1 C2.27860023 3.97782541 2.31541387 6.93200502 2.36328125 9.921875 C2.7289375 13.20458565 2.7289375 13.20458565 5.5234375 15.30859375 C8.62876746 18.68331353 8.52902241 20.41316779 8.43945312 24.83789062 C8.39755859 25.65451172 8.35566406 26.47113281 8.3125 27.3125 C8.27866211 28.56643555 8.27866211 28.56643555 8.24414062 29.84570312 C8.1855061 31.89791149 8.09583215 33.94919202 8 36 C7.01 36.495 7.01 36.495 6 37 C5.34444881 39.52733235 5.34444881 39.52733235 5 42 C3.02 42.495 3.02 42.495 1 43 C1.6433848 41.686298 2.28978215 40.37407102 2.9375 39.0625 C3.29714844 38.33160156 3.65679687 37.60070313 4.02734375 36.84765625 C5 35 5 35 6 34 C6.1002074 31.53018231 6.13877038 29.09448776 6.125 26.625 C6.12886719 25.93921875 6.13273437 25.2534375 6.13671875 24.546875 C6.13065046 21.42777362 5.99341455 18.98024365 5 16 C3.68 15.67 2.36 15.34 1 15 C0.67 10.05 0.34 5.1 0 0 Z " fill="#ADADAD" transform="translate(88,24)"/>
<path d="M0 0 C6.6 0.33 13.2 0.66 20 1 C20 1.99 20 2.98 20 4 C17.22890693 4.05392397 14.45886182 4.09363455 11.6875 4.125 C10.90181641 4.14175781 10.11613281 4.15851563 9.30664062 4.17578125 C8.54931641 4.18222656 7.79199219 4.18867187 7.01171875 4.1953125 C5.96697388 4.21102295 5.96697388 4.21102295 4.90112305 4.22705078 C3 4 3 4 0 2 C0 1.34 0 0.68 0 0 Z " fill="#080808" transform="translate(31,77)"/>
<path d="M0 0 C0.33 0.66 0.66 1.32 1 2 C0.34 2 -0.32 2 -1 2 C-1 2.99 -1 3.98 -1 5 C-1.66 5 -2.32 5 -3 5 C-3.76636091 8.46089679 -4.17149371 11.76077488 -4.31640625 15.30078125 C-4.35830078 16.27724609 -4.40019531 17.25371094 -4.44335938 18.25976562 C-4.48267578 19.26716797 -4.52199219 20.27457031 -4.5625 21.3125 C-4.62727539 22.85260742 -4.62727539 22.85260742 -4.69335938 24.42382812 C-4.79906825 26.94909569 -4.90116468 29.47445562 -5 32 C-5.33 32 -5.66 32 -6 32 C-6.33 25.73 -6.66 19.46 -7 13 C-8.32 12.67 -9.64 12.34 -11 12 C-9.68 11.67 -8.36 11.34 -7 11 C-7 10.01 -7 9.02 -7 8 C-6.34 8 -5.68 8 -5 8 C-5.103125 7.236875 -5.20625 6.47375 -5.3125 5.6875 C-5.1578125 4.3571875 -5.1578125 4.3571875 -5 3 C-2.5 1.1875 -2.5 1.1875 0 0 Z " fill="#373737" transform="translate(38,12)"/>
<path d="M0 0 C0.625 1.875 0.625 1.875 1 4 C0.34 4.66 -0.32 5.32 -1 6 C-1.62123884 11.01025094 -1.66176218 15.59375536 0.5 20.1875 C0.995 20.785625 1.49 21.38375 2 22 C1.34 22 0.68 22 0 22 C-0.66 22.66 -1.32 23.32 -2 24 C-4.89932357 21.60490662 -5.50168276 19.68754757 -6 16 C-5.34 16.33 -4.68 16.66 -4 17 C-3.93941406 16.16855469 -3.87882812 15.33710937 -3.81640625 14.48046875 C-3.73261719 13.39378906 -3.64882813 12.30710937 -3.5625 11.1875 C-3.48128906 10.10855469 -3.40007813 9.02960937 -3.31640625 7.91796875 C-3 5 -3 5 -2 2 C-1.34 2 -0.68 2 0 2 C0 1.34 0 0.68 0 0 Z " fill="#3E3E3E" transform="translate(22,32)"/>
<path d="M0 0 C0 2.97 0 5.94 0 9 C-1.65 9.66 -3.3 10.32 -5 11 C-4.34 10.01 -3.68 9.02 -3 8 C-2.34 8 -1.68 8 -1 8 C-1 6.02 -1 4.04 -1 2 C-2.90584196 2.20376178 -2.90584196 2.20376178 -5 3 C-5.43570313 3.62777344 -5.87140625 4.25554688 -6.3203125 4.90234375 C-8.3560248 7.44461701 -10.04037446 8.15973046 -13.0625 9.3125 C-13.94035156 9.65925781 -14.81820312 10.00601563 -15.72265625 10.36328125 C-18 11 -18 11 -20 10 C-19.19175781 9.52949219 -18.38351563 9.05898437 -17.55078125 8.57421875 C-16.48214844 7.95160156 -15.41351563 7.32898438 -14.3125 6.6875 C-13.25675781 6.07261719 -12.20101562 5.45773438 -11.11328125 4.82421875 C-9.15187088 3.67493564 -7.20837317 2.49395284 -5.29296875 1.26953125 C-3 0 -3 0 0 0 Z " fill="#6C6C6C" transform="translate(65,58)"/>
<path d="M0 0 C0 0.99 0 1.98 0 3 C-0.99 3.33 -1.98 3.66 -3 4 C-3 4.99 -3 5.98 -3 7 C-4.98 7 -6.96 7 -9 7 C-9 6.34 -9 5.68 -9 5 C-9.7425 4.87625 -10.485 4.7525 -11.25 4.625 C-13.80141485 4.04513299 -15.7267573 3.26291261 -18 2 C-17.34 1.67 -16.68 1.34 -16 1 C-15.401875 1.33 -14.80375 1.66 -14.1875 2 C-11.32333085 3.30933447 -9.98934539 2.87493036 -7 2 C-1.94117647 0 -1.94117647 0 0 0 Z " fill="#404040" transform="translate(48,62)"/>
<path d="M0 0 C1.75 1.125 1.75 1.125 2.75 3.125 C4.76669827 4.25850534 4.76669827 4.25850534 6.75 5.125 C5.76 5.455 4.77 5.785 3.75 6.125 C2.76 5.465 1.77 4.805 0.75 4.125 C0.75 3.465 0.75 2.805 0.75 2.125 C-0.57 2.125 -1.89 2.125 -3.25 2.125 C-3.25 1.465 -3.25 0.805 -3.25 0.125 C-5.23 1.115 -5.23 1.115 -7.25 2.125 C-7.25 3.115 -7.25 4.105 -7.25 5.125 C-5.93 5.125 -4.61 5.125 -3.25 5.125 C-2.92 6.115 -2.59 7.105 -2.25 8.125 C-9 6.375 -9 6.375 -11.25 4.125 C-11.25 3.135 -11.25 2.145 -11.25 1.125 C-7.35941027 -1.18053465 -4.26517607 -1.65867958 0 0 Z " fill="#B0B0B0" transform="translate(72.25,30.875)"/>
<path d="M0 0 C1.93359375 1.1015625 1.93359375 1.1015625 4 3 C4.72265625 5.9609375 4.72265625 5.9609375 5.0625 9.375 C5.5495647 14.1361943 6.48037434 16.96003364 9 21 C8.67 21.66 8.34 22.32 8 23 C6.5 21.6875 6.5 21.6875 5 20 C5 19.01 5 18.02 5 17 C4.34 17 3.68 17 3 17 C1.74326584 14.48653169 1.71024161 12.42571862 1.5 9.625 C1.24915301 6.30127744 0.91275806 3.20986584 0 0 Z " fill="#8D8D8D" transform="translate(17,53)"/>
<path d="M0 0 C0.33 0 0.66 0 1 0 C1.04898438 0.71027344 1.09796875 1.42054687 1.1484375 2.15234375 C1.22320312 3.07144531 1.29796875 3.99054687 1.375 4.9375 C1.44460937 5.85402344 1.51421875 6.77054688 1.5859375 7.71484375 C1.72257812 8.46894531 1.85921875 9.22304688 2 10 C2.66 10.33 3.32 10.66 4 11 C4 11.66 4 12.32 4 13 C3.01 13.495 3.01 13.495 2 14 C1.52998967 17.27555608 1.52998967 17.27555608 1.375 21.0625 C1.30023438 22.35285156 1.22546875 23.64320312 1.1484375 24.97265625 C1.09945312 25.97167969 1.05046875 26.97070312 1 28 C-0.32 27.67 -1.64 27.34 -3 27 C-3 26.01 -3 25.02 -3 24 C-2.01 24 -1.02 24 0 24 C0 16.08 0 8.16 0 0 Z " fill="#090909" transform="translate(43,26)"/>
<path d="M0 0 C3 3 3 3 3.36328125 5.55859375 C3.34652344 6.50863281 3.32976562 7.45867188 3.3125 8.4375 C3.30863281 9.38496094 3.30476563 10.33242188 3.30078125 11.30859375 C2.99934156 14.00589177 2.37375963 15.68485928 1 18 C0.34 17.67 -0.32 17.34 -1 17 C-0.67 11.39 -0.34 5.78 0 0 Z " fill="#191919" transform="translate(91,43)"/>
<path d="M0 0 C0.66 0 1.32 0 2 0 C3.69433918 3.0469629 4.49467112 5.82821466 5.125 9.25 C5.29257812 10.14203125 5.46015625 11.0340625 5.6328125 11.953125 C5.75398438 12.62859375 5.87515625 13.3040625 6 14 C5.01 14.495 5.01 14.495 4 15 C3.67 15.66 3.34 16.32 3 17 C-0.03901852 11.17521449 -0.3540919 6.51791392 0 0 Z " fill="#343434" transform="translate(21,56)"/>
<path d="M0 0 C0.66 0 1.32 0 2 0 C2 5.61 2 11.22 2 17 C-1 14 -1 14 -1.328125 11.15234375 C-1.30234375 10.09144531 -1.2765625 9.03054687 -1.25 7.9375 C-1.23453125 6.87402344 -1.2190625 5.81054688 -1.203125 4.71484375 C-1 2 -1 2 0 0 Z " fill="#232323" transform="translate(17,34)"/>
<path d="M0 0 C2.5625 1.375 2.5625 1.375 4 3 C4 3.66 4 4.32 4 5 C4.66 5.33 5.32 5.66 6 6 C4.68 6 3.36 6 2 6 C2 5.34 2 4.68 2 4 C0.68 3.67 -0.64 3.34 -2 3 C-2 2.34 -2 1.68 -2 1 C-7.42096702 2.35524176 -12.0778687 4.36634013 -17 7 C-17.33 6.34 -17.66 5.68 -18 5 C-12.1088081 1.10039307 -7.16396401 -1.34682523 0 0 Z " fill="#7F7F7F" transform="translate(72,24)"/>
<path d="M0 0 C0.66 0 1.32 0 2 0 C2.33 6.93 2.66 13.86 3 21 C3.66 21 4.32 21 5 21 C5 21.66 5 22.32 5 23 C4.34 23 3.68 23 3 23 C2.67 24.32 2.34 25.64 2 27 C1.67 27 1.34 27 1 27 C0.67 18.09 0.34 9.18 0 0 Z " fill="#0F0F0F" transform="translate(77,46)"/>
<path d="M0 0 C0 4.95 0 9.9 0 15 C-0.99 14.67 -1.98 14.34 -3 14 C-2.67 10.37 -2.34 6.74 -2 3 C-3.32 3 -4.64 3 -6 3 C-6 2.34 -6 1.68 -6 1 C-1.125 0 -1.125 0 0 0 Z " fill="#141414" transform="translate(67,54)"/>
<path d="M0 0 C0.99 0 1.98 0 3 0 C3 0.66 3 1.32 3 2 C3.66 2 4.32 2 5 2 C5 5.3 5 8.6 5 12 C4.34 12 3.68 12 3 12 C3 12.66 3 13.32 3 14 C2.01 13.67 1.02 13.34 0 13 C0.66 13 1.32 13 2 13 C2 9.04 2 5.08 2 1 C1.34 0.67 0.68 0.34 0 0 Z " fill="#D0D0D0" transform="translate(59,40)"/>
<path d="M0 0 C0.99 0 1.98 0 3 0 C3 1.32 3 2.64 3 4 C3.99 4.33 4.98 4.66 6 5 C2.04 6.98 2.04 6.98 -2 9 C-2.33 8.34 -2.66 7.68 -3 7 C-3.99 6.67 -4.98 6.34 -6 6 C-4.02 6 -2.04 6 0 6 C0 4.02 0 2.04 0 0 Z " fill="#2B2B2B" transform="translate(48,59)"/>
<path d="M0 0 C2.97 0 5.94 0 9 0 C8.34 1.32 7.68 2.64 7 4 C3.875 4.75 3.875 4.75 1 5 C0.67 3.35 0.34 1.7 0 0 Z " fill="#0F0F0F" transform="translate(50,58)"/>
<path d="M0 0 C1.485 0.99 1.485 0.99 3 2 C3.1875 4.625 3.1875 4.625 3 7 C3.66 7 4.32 7 5 7 C5 8.65 5 10.3 5 12 C2.5625 11.625 2.5625 11.625 0 11 C-0.33 10.34 -0.66 9.68 -1 9 C-0.01 9 0.98 9 2 9 C1.67 8.2575 1.34 7.515 1 6.75 C0 4 0 4 0 0 Z " fill="#BBBBBB" transform="translate(79,20)"/>
<path d="M0 0 C3.37503669 1.1858237 5.64722731 2.27573689 8 5 C7.67 5.66 7.34 6.32 7 7 C6.01 7 5.02 7 4 7 C3.67 9.64 3.34 12.28 3 15 C2.67 15 2.34 15 2 15 C2 11.04 2 7.08 2 3 C1.34 3 0.68 3 0 3 C0 2.01 0 1.02 0 0 Z " fill="#0D0D0D" transform="translate(21,53)"/>
<path d="M0 0 C0 6.6 0 13.2 0 20 C-0.33 20 -0.66 20 -1 20 C-1.33 14.39 -1.66 8.78 -2 3 C-3.32 3 -4.64 3 -6 3 C-6 2.34 -6 1.68 -6 1 C-1.125 0 -1.125 0 0 0 Z " fill="#0F0F0F" transform="translate(32,24)"/>
<path d="M0 0 C5.625 1.125 5.625 1.125 8 4 C5.69 4 3.38 4 1 4 C1 6.97 1 9.94 1 13 C0.67 13 0.34 13 0 13 C0 8.71 0 4.42 0 0 Z " fill="#080808" transform="translate(66,40)"/>
<path d="M0 0 C0.33 1.65 0.66 3.3 1 5 C-2.3 5 -5.6 5 -9 5 C-8.01 4.67 -7.02 4.34 -6 4 C-5.67 3.01 -5.34 2.02 -5 1 C-3 0 -3 0 0 0 Z " fill="#0A0A0A" transform="translate(59,31)"/>
<path d="M0 0 C3.96 0.33 7.92 0.66 12 1 C11.67 1.66 11.34 2.32 11 3 C3.6375 4.425 3.6375 4.425 0 2 C0 1.34 0 0.68 0 0 Z " fill="#141414" transform="translate(31,77)"/>
<path d="M0 0 C2.475 0.495 2.475 0.495 5 1 C5 1.66 5 2.32 5 3 C4.01 3 3.02 3 2 3 C2.33 5.31 2.66 7.62 3 10 C3.66 10 4.32 10 5 10 C4.67 10.99 4.34 11.98 4 13 C1.07976708 8.17526734 -0.12386 5.69755995 0 0 Z " fill="#818181" transform="translate(25,60)"/>
<path d="M0 0 C1.32 0.33 2.64 0.66 4 1 C1.66784896 4.49822656 -0.29519627 5.18701094 -4 7 C-4.33 7.66 -4.66 8.32 -5 9 C-5.66 8.67 -6.32 8.34 -7 8 C-5.1875 5 -5.1875 5 -3 2 C-2.01 2 -1.02 2 0 2 C0 1.34 0 0.68 0 0 Z " fill="#B4B4B4" transform="translate(25,21)"/>
<path d="M0 0 C2.75059381 -0.08107646 5.49879021 -0.14052813 8.25 -0.1875 C9.02730469 -0.21263672 9.80460937 -0.23777344 10.60546875 -0.26367188 C16.42997175 -0.33834499 16.42997175 -0.33834499 19.546875 1.51171875 C20.02640625 2.00285156 20.5059375 2.49398437 21 3 C18.69 3 16.38 3 14 3 C14 2.34 14 1.68 14 1 C9.38 1 4.76 1 0 1 C0 0.67 0 0.34 0 0 Z " fill="#A2A2A2" transform="translate(33,82)"/>
<path d="M0 0 C3.77300358 1.0197307 4.80206144 1.65872662 6.8125 5.125 C7.204375 6.07375 7.59625 7.0225 8 8 C4.21479387 7.45925627 2.40822445 5.92427254 0 3 C0 2.01 0 1.02 0 0 Z " fill="#181818" transform="translate(78,16)"/>
<path d="M0 0 C0.99 0.33 1.98 0.66 3 1 C5.39254576 1.22560676 7.78928123 1.40848595 10.1875 1.5625 C12.09595703 1.68818359 12.09595703 1.68818359 14.04296875 1.81640625 C15.01878906 1.87699219 15.99460937 1.93757813 17 2 C17 1.34 17 0.68 17 0 C17.66 0 18.32 0 19 0 C18.67 0.99 18.34 1.98 18 3 C12.06 3 6.12 3 0 3 C0 2.01 0 1.02 0 0 Z " fill="#D0D0D0" transform="translate(52,85)"/>
<path d="M0 0 C0.99 0.495 0.99 0.495 2 1 C1.98839844 2.03640625 1.97679687 3.0728125 1.96484375 4.140625 C1.95546163 5.51041486 1.94636188 6.88020668 1.9375 8.25 C1.92912109 8.93191406 1.92074219 9.61382812 1.91210938 10.31640625 C1.89571608 13.69342554 1.94371232 16.77291639 3 20 C2.01 20 1.02 20 0 20 C0 13.4 0 6.8 0 0 Z " fill="#BCBCBC" transform="translate(14,32)"/>
<path d="M0 0 C0.33 1.32 0.66 2.64 1 4 C2.32 4 3.64 4 5 4 C5 3.34 5 2.68 5 2 C5.66 2 6.32 2 7 2 C6.67 2.99 6.34 3.98 6 5 C5.01 5 4.02 5 3 5 C3 5.66 3 6.32 3 7 C1.68 7 0.36 7 -1 7 C-1.04254356 5.00045254 -1.04080783 2.99958364 -1 1 C-0.67 0.67 -0.34 0.34 0 0 Z " fill="#CACACA" transform="translate(47,27)"/>
<path d="M0 0 C1.48828125 1.01953125 1.48828125 1.01953125 3 3 C3.2172101 5.64996326 3.28351554 8.05076558 3.1875 10.6875 C3.17396484 11.38939453 3.16042969 12.09128906 3.14648438 12.81445312 C3.11120182 14.54329829 3.05739583 16.27174765 3 18 C2.34 18.33 1.68 18.66 1 19 C1.01160156 18.13117187 1.02320312 17.26234375 1.03515625 16.3671875 C1.04417969 15.21476562 1.05320312 14.06234375 1.0625 12.875 C1.07990234 11.16957031 1.07990234 11.16957031 1.09765625 9.4296875 C1.005327 6.1870844 0.61389906 3.18067388 0 0 Z " fill="#717171" transform="translate(92,40)"/>
<path d="M0 0 C1.32 0.33 2.64 0.66 4 1 C3.0409375 1.556875 3.0409375 1.556875 2.0625 2.125 C-0.63858072 4.58052793 -0.68407005 6.44578805 -1 10 C-0.01 10.33 0.98 10.66 2 11 C0.68 11.33 -0.64 11.66 -2 12 C-2.05422947 10.5629191 -2.09289723 9.12524538 -2.125 7.6875 C-2.14820313 6.88699219 -2.17140625 6.08648437 -2.1953125 5.26171875 C-2 3 -2 3 0 0 Z " fill="#717171" transform="translate(47,24)"/>
<path d="M0 0 C0.55171875 0.22558594 1.1034375 0.45117188 1.671875 0.68359375 C-0.57768802 2.93315677 -2.39135763 3.6887034 -5.328125 4.87109375 C-6.215 5.23589844 -7.101875 5.60070312 -8.015625 5.9765625 C-10.328125 6.68359375 -10.328125 6.68359375 -12.328125 5.68359375 C-10.75465324 4.64762475 -9.16890954 3.63027643 -7.578125 2.62109375 C-6.69640625 2.05261719 -5.8146875 1.48414063 -4.90625 0.8984375 C-2.328125 -0.31640625 -2.328125 -0.31640625 0 0 Z " fill="#9F9F9F" transform="translate(57.328125,62.31640625)"/>
<path d="M0 0 C3 3 3 3 3.07421875 5.04296875 C2.71614583 7.02864583 2.35807292 9.01432292 2 11 C1.34 11 0.68 11 0 11 C0 7.37 0 3.74 0 0 Z " fill="#202020" transform="translate(91,43)"/>
<path d="M0 0 C1.125 3.75 1.125 3.75 0 6 C-0.22858114 8.0374763 -0.41024278 10.08040303 -0.5625 12.125 C-0.64628906 13.22070312 -0.73007812 14.31640625 -0.81640625 15.4453125 C-0.87699219 16.28835937 -0.93757813 17.13140625 -1 18 C-1.33 18 -1.66 18 -2 18 C-2.05397335 15.5622037 -2.09365616 13.12560315 -2.125 10.6875 C-2.14175781 9.99720703 -2.15851562 9.30691406 -2.17578125 8.59570312 C-2.21217794 4.82864604 -2.14378864 3.21568296 0 0 Z " fill="#707070" transform="translate(17,30)"/>
<path d="M0 0 C1.32 0 2.64 0 4 0 C4 0.66 4 1.32 4 2 C4.99 2.33 5.98 2.66 7 3 C8.1875 6.0625 8.1875 6.0625 9 9 C5.51250686 6.21000549 2.49842779 3.74764169 0 0 Z " fill="#A0A0A0" transform="translate(79,14)"/>
<path d="M0 0 C-0.66 0.66 -1.32 1.32 -2 2 C-2.64767793 4.57061311 -2.64767793 4.57061311 -3 7 C-4.32 6.67 -5.64 6.34 -7 6 C-6.01 6 -5.02 6 -4 6 C-4 5.01 -4 4.02 -4 3 C-5.65 3 -7.3 3 -9 3 C-5.92807025 0.26939578 -4.09590633 -0.34132553 0 0 Z " fill="#181818" transform="translate(55,75)"/>
<path d="M0 0 C0.33 0 0.66 0 1 0 C1.66 3.3 2.32 6.6 3 10 C2.01 10.495 2.01 10.495 1 11 C0.67 11.66 0.34 12.32 0 13 C-1.29676812 8.38926889 -0.71109139 4.66159911 0 0 Z " fill="#2E2E2E" transform="translate(24,60)"/>
<path d="M0 0 C1.32 0.66 2.64 1.32 4 2 C2.35 3.65 0.7 5.3 -1 7 C-1.66 6.67 -2.32 6.34 -3 6 C-2.34 5.01 -1.68 4.02 -1 3 C-1.66 2.67 -2.32 2.34 -3 2 C-2.01 1.34 -1.02 0.68 0 0 Z " fill="#404040" transform="translate(63,67)"/>
<path d="M0 0 C0.66 0 1.32 0 2 0 C2.26252625 4.33168317 1.29243536 7.8803623 0 12 C-0.33 12 -0.66 12 -1 12 C-1.02698189 10.37509046 -1.04638757 8.75005367 -1.0625 7.125 C-1.07410156 6.22007813 -1.08570313 5.31515625 -1.09765625 4.3828125 C-1 2 -1 2 0 0 Z " fill="#181818" transform="translate(17,34)"/>
<path d="M0 0 C0.75 1.625 0.75 1.625 1 4 C-0.9375 7.25 -0.9375 7.25 -3 10 C-3.66 9.67 -4.32 9.34 -5 9 C-4.34 8.34 -3.68 7.68 -3 7 C-2.835 5.989375 -2.67 4.97875 -2.5 3.9375 C-2.335 2.968125 -2.17 1.99875 -2 1 C-1.34 0.67 -0.68 0.34 0 0 Z " fill="#6D6D6D" transform="translate(79,72)"/>
<path d="M0 0 C0.625 1.875 0.625 1.875 1 4 C0.34 4.66 -0.32 5.32 -1 6 C-1.45811675 7.97235333 -1.45811675 7.97235333 -1.625 10.125 C-1.74875 11.40375 -1.8725 12.6825 -2 14 C-2.33 14 -2.66 14 -3 14 C-3.02712066 12.56260487 -3.04645067 11.12506137 -3.0625 9.6875 C-3.07410156 8.88699219 -3.08570312 8.08648437 -3.09765625 7.26171875 C-3 5 -3 5 -2 2 C-1.34 2 -0.68 2 0 2 C0 1.34 0 0.68 0 0 Z " fill="#808080" transform="translate(22,32)"/>
<path d="M0 0 C0.33 0 0.66 0 1 0 C1 3.96 1 7.92 1 12 C0.34 12 -0.32 12 -1 12 C-1 11.34 -1 10.68 -1 10 C-2.32 9.67 -3.64 9.34 -5 9 C-3.68 8.67 -2.36 8.34 -1 8 C-0.67 5.36 -0.34 2.72 0 0 Z " fill="#080808" transform="translate(86,26)"/>
<path d="M0 0 C1.32 0.33 2.64 0.66 4 1 C4 1.99 4 2.98 4 4 C2.02 4 0.04 4 -2 4 C-1.34 2.68 -0.68 1.36 0 0 Z " fill="#262626" transform="translate(53,18)"/>
<path d="M0 0 C1.485 0.99 1.485 0.99 3 2 C3.29296875 5.0390625 3.29296875 5.0390625 3.1875 8.625 C3.16042969 9.81351563 3.13335938 11.00203125 3.10546875 12.2265625 C3.07066406 13.14179687 3.03585938 14.05703125 3 15 C2.67 15 2.34 15 2 15 C1.93941406 14.25234375 1.87882812 13.5046875 1.81640625 12.734375 C1.73261719 11.74953125 1.64882813 10.7646875 1.5625 9.75 C1.48128906 8.77546875 1.40007813 7.8009375 1.31640625 6.796875 C1.04925416 4.43538247 0.64628032 2.28098935 0 0 Z " fill="#C3C3C3" transform="translate(17,53)"/>
<path d="M0 0 C2.97 0.33 5.94 0.66 9 1 C9 1.33 9 1.66 9 2 C5.37 2.33 1.74 2.66 -2 3 C-1.34 2.01 -0.68 1.02 0 0 Z " fill="#313131" transform="translate(50,8)"/>
<path d="M0 0 C1.32 0.33 2.64 0.66 4 1 C2 3 2 3 -0.6015625 3.1953125 C-1.59929688 3.17210938 -2.59703125 3.14890625 -3.625 3.125 C-5.12933594 3.09792969 -5.12933594 3.09792969 -6.6640625 3.0703125 C-7.43492188 3.04710938 -8.20578125 3.02390625 -9 3 C-9 2.67 -9 2.34 -9 2 C-6.03 2 -3.06 2 0 2 C0 1.34 0 0.68 0 0 Z " fill="#B8B8B8" transform="translate(45,74)"/>
<path d="M0 0 C0.33 0.66 0.66 1.32 1 2 C3.02463255 2.65213292 3.02463255 2.65213292 5 3 C0.66726186 3.92844389 -2.66726186 3.92844389 -7 3 C-7 2.67 -7 2.34 -7 2 C-4.69 1.34 -2.38 0.68 0 0 Z " fill="#2F2F2F" transform="translate(60,55)"/>
<path d="M0 0 C2.31 0.66 4.62 1.32 7 2 C7 2.66 7 3.32 7 4 C7.66 4.33 8.32 4.66 9 5 C5.65626525 4.44271087 2.96687001 3.64826111 0 2 C0 1.34 0 0.68 0 0 Z " fill="#DADADA" transform="translate(35,53)"/>
<path d="M0 0 C0 3 0 3 -1.25 4.75 C-3 6 -3 6 -5.1875 5.6875 C-5.785625 5.460625 -6.38375 5.23375 -7 5 C-5.68 4.67 -4.36 4.34 -3 4 C-3 3.01 -3 2.02 -3 1 C-2.01 0.67 -1.02 0.34 0 0 Z " fill="#2D2D2D" transform="translate(34,19)"/>
<path d="M0 0 C1.32 0 2.64 0 4 0 C3.34 1.32 2.68 2.64 2 4 C0.68 4 -0.64 4 -2 4 C-2 3.34 -2 2.68 -2 2 C-1.34 2 -0.68 2 0 2 C0 1.34 0 0.68 0 0 Z " fill="#1A1A1A" transform="translate(58,70)"/>
<path d="M0 0 C2.475 0.99 2.475 0.99 5 2 C4.34 3.32 3.68 4.64 3 6 C1.68 5.01 0.36 4.02 -1 3 C-0.67 2.01 -0.34 1.02 0 0 Z " fill="#1F1F1F" transform="translate(74,43)"/>
<path d="M0 0 C-0.33 2.31 -0.66 4.62 -1 7 C-2.5 5.6875 -2.5 5.6875 -4 4 C-4 3.01 -4 2.02 -4 1 C-2 0 -2 0 0 0 Z " fill="#363636" transform="translate(92,40)"/>
<path d="M0 0 C0.66 0.33 1.32 0.66 2 1 C-1.465 3.97 -1.465 3.97 -5 7 C-5.33 6.34 -5.66 5.68 -6 5 C-5.34 5 -4.68 5 -4 5 C-4 4.01 -4 3.02 -4 2 C-2.125 0.9375 -2.125 0.9375 0 0 Z " fill="#747474" transform="translate(41,12)"/>
</svg>
